<svg xmlns="http://www.w3.org/2000/svg" width="169" height="35" fill="none" viewBox="0 0 169 35"><path fill="#717485" d="M10.464 34H.144v-1.632c.864 0 1.568-.128 2.112-.384.544-.288 1.056-.832 1.536-1.632.48-.832 1.056-2.08 1.728-3.744L15.792 2.224h2.928L29.76 28c.704 1.568 1.392 2.688 2.064 3.36.672.672 1.616 1.008 2.832 1.008V34h-13.68v-1.632c.448 0 .912-.032 1.392-.096.512-.064.928-.208 1.248-.432.352-.256.528-.656.528-1.2 0-.352-.08-.784-.24-1.296a12.77 12.77 0 0 0-.624-1.872l-1.872-4.368-.336-1.056L15.888 8.56h-.144L10.32 22.048l-.384 1.056-2.112 5.088a54.24 54.24 0 0 0-.384 1.2 4.382 4.382 0 0 0-.192 1.296c0 .704.256 1.168.768 1.392.512.192 1.328.288 2.448.288V34Zm11.76-10.368H9.168l.768-2.112h11.52l.768 2.112ZM50.09 34H35.594v-1.632c1.44 0 2.48-.112 3.12-.336.672-.256 1.088-.72 1.248-1.392.192-.704.288-1.744.288-3.12V8.992c0-1.248-.08-2.224-.24-2.928-.16-.736-.56-1.248-1.2-1.536-.64-.288-1.712-.432-3.216-.432V2.464h14.544v1.632c-1.472 0-2.544.144-3.216.432-.64.288-1.04.8-1.2 1.536-.128.704-.192 1.68-.192 2.928V27.52c0 1.376.08 2.416.24 3.12.192.672.608 1.136 1.248 1.392.672.224 1.696.336 3.072.336V34Zm2.74.432-.145-8.496h1.536c.48 2.4 1.2 4.112 2.16 5.136.96 1.024 2.32 1.536 4.08 1.536 1.184 0 2.144-.24 2.88-.72.768-.512 1.152-1.28 1.152-2.304 0-.704-.144-1.296-.432-1.776-.256-.48-.784-.976-1.584-1.488-.768-.512-1.904-1.136-3.408-1.872-1.44-.704-2.624-1.392-3.552-2.064-.928-.672-1.632-1.44-2.112-2.304-.448-.864-.672-1.92-.672-3.168 0-1.984.704-3.504 2.112-4.56 1.44-1.088 3.28-1.632 5.52-1.632 1.28 0 2.32.16 3.12.48.8.32 1.472.624 2.016.912h.096l.816-1.104h1.248l.144 7.488H66.27c-.544-2.272-1.28-3.824-2.208-4.656-.928-.864-2.112-1.296-3.552-1.296-1.088 0-1.968.256-2.64.768-.672.512-1.008 1.248-1.008 2.208 0 .96.432 1.776 1.296 2.448.896.64 2.288 1.44 4.176 2.4 1.44.736 2.672 1.456 3.696 2.16 1.024.704 1.808 1.488 2.352 2.352.544.864.816 1.936.816 3.216 0 1.568-.4 2.832-1.2 3.792-.768.96-1.808 1.648-3.12 2.064-1.28.384-2.672.576-4.176.576-1.408 0-2.528-.144-3.36-.432-.8-.288-1.52-.56-2.16-.816h-.144l-1.008 1.152h-1.2Zm36.968-7.872 1.008.72a22.62 22.62 0 0 1-2.112 3.648 8.77 8.77 0 0 1-3.024 2.592c-1.216.64-2.752.96-4.608.96-2.048 0-3.824-.464-5.328-1.392-1.472-.928-2.624-2.24-3.456-3.936-.8-1.696-1.2-3.696-1.2-6 0-2.496.432-4.672 1.296-6.528.864-1.856 2.128-3.296 3.792-4.32 1.696-1.056 3.76-1.584 6.192-1.584 2.432 0 4.336.496 5.712 1.488 1.376.992 2.064 2.208 2.064 3.648 0 .8-.224 1.408-.672 1.824-.448.416-1.04.624-1.776.624-.768 0-1.36-.192-1.776-.576a4.207 4.207 0 0 1-.912-1.392 91.816 91.816 0 0 0-.672-1.68 3.562 3.562 0 0 0-1.008-1.44c-.416-.384-1.056-.576-1.92-.576-1.792 0-3.168.704-4.128 2.112-.928 1.408-1.392 3.456-1.392 6.144 0 2.848.544 5.152 1.632 6.912 1.088 1.728 2.88 2.592 5.376 2.592 1.6 0 2.896-.304 3.888-.912.992-.64 2-1.616 3.024-2.928ZM104.915 34h-12.96v-1.536c1.056 0 1.824-.08 2.304-.24.512-.192.832-.528.96-1.008.16-.48.24-1.168.24-2.064v-12.72c0-.864-.096-1.52-.288-1.968-.16-.448-.656-.672-1.488-.672-.48 0-.848.016-1.104.048l-.384.048v-1.584l6.432-1.44h1.632v4.944h.192a83.67 83.67 0 0 1 2.16-2.88c.608-.768 1.216-1.344 1.824-1.728.64-.416 1.376-.624 2.208-.624 1.056 0 1.824.272 2.304.816.512.544.768 1.296.768 2.256 0 1.056-.24 1.824-.72 2.304-.48.48-1.024.72-1.632.72a2.778 2.778 0 0 1-1.536-.432c-.416-.32-.784-.624-1.104-.912-.288-.288-.544-.432-.768-.432-.512 0-1.104.352-1.776 1.056a19.887 19.887 0 0 0-1.824 2.352v10.608c0 .992.128 1.744.384 2.256.288.512.768.864 1.44 1.056.672.16 1.584.24 2.736.24V34Zm17.344 0h-11.856v-1.536c1.056 0 1.824-.096 2.304-.288.48-.192.784-.544.912-1.056s.192-1.216.192-2.112V16c0-1.056-.192-1.696-.576-1.92-.352-.256-.896-.384-1.632-.384a7.017 7.017 0 0 0-1.2.096v-1.584l6.432-1.344h1.872V28.96c0 .928.064 1.648.192 2.16.16.512.496.864 1.008 1.056.512.192 1.296.288 2.352.288V34Zm-6-26.64c-.896 0-1.632-.288-2.208-.864-.576-.608-.864-1.344-.864-2.208 0-.864.272-1.584.816-2.16.576-.576 1.328-.864 2.256-.864.992 0 1.76.288 2.304.864.544.576.816 1.296.816 2.16 0 .864-.272 1.6-.816 2.208-.544.576-1.312.864-2.304.864ZM129.403.112h1.632v14.64h.192c.832-.992 1.856-1.904 3.072-2.736 1.216-.864 2.64-1.296 4.272-1.296 1.632 0 3.04.448 4.224 1.344 1.216.864 2.144 2.096 2.784 3.696.672 1.568 1.008 3.44 1.008 5.616 0 2.912-.512 5.344-1.536 7.296s-2.448 3.408-4.272 4.368c-1.792.96-3.872 1.44-6.24 1.44-2.144 0-3.92-.24-5.328-.72-1.408-.48-2.432-.88-3.072-1.2V5.824c0-1.088-.128-1.776-.384-2.064-.224-.32-.784-.48-1.68-.48-.416 0-.752.016-1.008.048l-.384.048V1.792l6.72-1.68Zm1.632 16.992v13.008c.416.544.976 1.056 1.68 1.536.736.48 1.68.72 2.832.72 1.408 0 2.528-.416 3.36-1.248.832-.864 1.424-2.016 1.776-3.456.384-1.472.576-3.088.576-4.848 0-1.568-.16-2.992-.48-4.272-.288-1.28-.8-2.288-1.536-3.024-.736-.768-1.76-1.152-3.072-1.152a5.37 5.37 0 0 0-3.12.96c-.896.64-1.568 1.232-2.016 1.776Zm28.277 17.376c-2.048 0-3.872-.448-5.472-1.344-1.568-.896-2.8-2.224-3.696-3.984-.864-1.792-1.296-3.968-1.296-6.528 0-2.688.48-4.912 1.44-6.672.96-1.76 2.24-3.072 3.84-3.936 1.6-.864 3.376-1.296 5.328-1.296 2.752 0 4.96.912 6.624 2.736 1.664 1.824 2.544 4.464 2.64 7.92h-15.456l-.048-1.92h10.08c-.032-1.248-.208-2.384-.528-3.408-.32-1.024-.816-1.84-1.488-2.448-.64-.608-1.488-.912-2.544-.912-1.728 0-3.008.704-3.84 2.112-.8 1.408-1.2 3.472-1.2 6.192 0 2.176.32 3.968.96 5.376.64 1.376 1.504 2.4 2.592 3.072 1.088.64 2.304.96 3.648.96 1.28 0 2.336-.16 3.168-.48.864-.32 1.584-.752 2.16-1.296a13.057 13.057 0 0 0 1.68-1.824l1.008.768a30.833 30.833 0 0 1-1.488 2.64 10.587 10.587 0 0 1-1.92 2.208c-.704.64-1.568 1.152-2.592 1.536-.992.352-2.192.528-3.6.528Z"/></svg>