<svg xmlns="http://www.w3.org/2000/svg" width="130" height="27" fill="none" viewBox="0 0 130 27"><path fill="#717485" d="M8.34 6.092H4.092v6.48H7.98c2.34 0 4.248-.864 4.248-3.384 0-2.304-1.908-3.096-3.888-3.096Zm1.008 9.792H4.092v6.624h5.256c2.088 0 4.104-.864 4.104-3.348 0-2.268-1.764-3.276-4.104-3.276ZM.06 26V2.6h8.244c5.004 0 8.028 2.412 8.028 6.012 0 2.484-1.224 4.392-3.816 5.328 3.492.756 5.004 2.844 5.004 5.508 0 3.996-2.952 6.552-7.848 6.552H.06Zm24.165-9.648V26h-3.96V8.36h3.636v3.6c.936-2.7 2.844-4.032 5.22-4.032.792 0 1.44.144 1.908.396l-.684 3.78a7.922 7.922 0 0 0-1.8-.216c-2.448 0-4.32.9-4.32 4.464Zm14.035 7.056c2.592 0 4.86-1.584 4.86-4.176v-.54h-5.184c-1.944 0-2.7.9-2.7 2.232 0 1.584 1.188 2.484 3.024 2.484ZM43.372 26v-2.772c-1.296 2.232-3.564 3.204-5.904 3.204-3.564 0-6.12-2.124-6.12-5.4 0-3.024 2.196-5.04 5.832-5.04h5.112c.648 0 .828-.216.828-.756v-.288c0-2.52-1.404-3.816-3.456-3.816s-3.276 1.116-4.032 2.988l-3.6-.936c1.224-3.348 3.996-5.256 7.632-5.256 4.716 0 7.38 2.772 7.38 7.452V26h-3.672Zm9.11-20.844c-1.404 0-2.556-1.116-2.556-2.484 0-1.368 1.152-2.448 2.556-2.448 1.44 0 2.593 1.08 2.593 2.448 0 1.368-1.153 2.484-2.593 2.484Zm1.98 3.204V26h-3.96V8.36h3.96Zm7.736 7.596V26h-3.96V8.36h3.708v3.204c1.08-2.448 3.132-3.636 5.688-3.636 4.932 0 6.804 3.276 6.804 7.668V26h-3.96V15.776c0-2.736-1.296-4.32-3.996-4.32s-4.284 1.656-4.284 4.5ZM86.64 6.092h-4.248v6.48h3.888c2.34 0 4.248-.864 4.248-3.384 0-2.304-1.908-3.096-3.888-3.096Zm1.008 9.792h-5.256v6.624h5.256c2.088 0 4.104-.864 4.104-3.348 0-2.268-1.764-3.276-4.104-3.276ZM78.36 26V2.6h8.244c5.004 0 8.028 2.412 8.028 6.012 0 2.484-1.224 4.392-3.816 5.328 3.492.756 5.004 2.844 5.004 5.508 0 3.996-2.952 6.552-7.848 6.552H78.36Zm27.873.432c-5.22 0-8.784-4.104-8.784-9.252 0-5.148 3.564-9.252 8.784-9.252 5.256 0 8.784 4.104 8.784 9.252 0 5.148-3.528 9.252-8.784 9.252Zm0-3.384c2.736 0 4.752-2.196 4.752-5.868s-2.016-5.868-4.752-5.868c-2.7 0-4.752 2.196-4.752 5.868s2.052 5.868 4.752 5.868ZM127.955 11.6h-5.472v8.532c0 1.944.936 2.844 2.304 2.844.972 0 1.764-.36 2.772-1.116l1.656 2.772c-1.548 1.26-3.204 1.8-5.004 1.8-3.348 0-5.688-2.052-5.688-6.3V11.6h-3.024V8.36h3.204l.828-4.14h2.952v4.14h5.472v3.24Z"/></svg>