<svg xmlns="http://www.w3.org/2000/svg" width="199" height="32" fill="none" viewBox="0 0 199 32"><path fill="#717485" d="M.114 15.41v-1.706c1.28 0 2.174-.26 2.681-.784.508-.53.762-1.405.762-2.624V7.034c0-1.159.129-2.132.386-2.92.265-.796.667-1.432 1.205-1.91.538-.477 1.22-.821 2.045-1.034.826-.212 1.8-.318 2.92-.318v2.693c-.878 0-1.564.13-2.056.387-.493.257-.837.659-1.034 1.204-.19.538-.284 1.228-.284 2.069v4.136c0 .583-.087 1.125-.262 1.625-.174.492-.496.92-.966 1.284s-1.14.648-2.011.852c-.871.205-2 .307-3.386.307Zm10 14.43c-1.122 0-2.095-.105-2.92-.317-.827-.212-1.508-.557-2.046-1.034-.538-.478-.94-1.114-1.205-1.91-.257-.787-.386-1.76-.386-2.92v-3.273c0-1.212-.254-2.083-.762-2.613-.507-.53-1.401-.796-2.681-.796v-1.693c1.386 0 2.515.102 3.386.307.871.197 1.542.481 2.011.852.47.364.792.796.966 1.296.175.492.262 1.03.262 1.613v4.137c0 .833.094 1.519.284 2.056.197.546.541.947 1.034 1.205.492.265 1.178.398 2.057.398v2.693Zm-10-12.863v-3.273H3.26v3.273H.114ZM19.287 25V7.545h3.397V25h-3.397Zm1.716-20.148a2.16 2.16 0 0 1-1.523-.59c-.417-.402-.625-.88-.625-1.432 0-.561.208-1.038.625-1.432a2.138 2.138 0 0 1 1.523-.603c.59 0 1.094.201 1.51.603.425.394.637.87.637 1.432 0 .553-.212 1.03-.636 1.431a2.12 2.12 0 0 1-1.511.591Zm8.37 9.784V25h-3.398V7.545h3.262v2.841h.216a4.989 4.989 0 0 1 1.886-2.227c.864-.56 1.95-.84 3.261-.84 1.19 0 2.231.25 3.125.75.894.492 1.587 1.226 2.08 2.204.492.977.739 2.185.739 3.625V25h-3.398V14.307c0-1.265-.33-2.254-.989-2.966-.659-.72-1.564-1.08-2.716-1.08-.788 0-1.488.17-2.102.512-.606.34-1.087.84-1.443 1.5-.349.651-.523 1.44-.523 2.363Zm17.845 0V25H43.82V7.545h3.262v2.841h.216a4.989 4.989 0 0 1 1.886-2.227c.864-.56 1.95-.84 3.261-.84 1.19 0 2.231.25 3.125.75.894.492 1.587 1.226 2.08 2.204.492.977.739 2.185.739 3.625V25H54.99V14.307c0-1.265-.33-2.254-.989-2.966-.659-.72-1.564-1.08-2.716-1.08-.788 0-1.488.17-2.102.512-.606.34-1.087.84-1.443 1.5-.349.651-.523 1.44-.523 2.363Zm21.8 10.716c-1.637 0-3.065-.375-4.284-1.125-1.22-.75-2.167-1.799-2.841-3.148-.675-1.348-1.012-2.924-1.012-4.727 0-1.81.337-3.394 1.012-4.75.674-1.356 1.62-2.409 2.84-3.159 1.22-.75 2.648-1.125 4.285-1.125 1.636 0 3.064.375 4.284 1.125 1.22.75 2.166 1.803 2.84 3.16.675 1.355 1.012 2.939 1.012 4.75 0 1.802-.337 3.378-1.011 4.726-.675 1.349-1.622 2.398-2.841 3.148-1.22.75-2.648 1.125-4.284 1.125Zm.011-2.852c1.06 0 1.94-.28 2.636-.84.697-.561 1.212-1.308 1.546-2.24.34-.931.511-1.958.511-3.08 0-1.113-.17-2.136-.511-3.067-.334-.94-.849-1.694-1.546-2.262-.697-.568-1.575-.852-2.636-.852-1.068 0-1.955.284-2.66.852-.696.569-1.215 1.322-1.556 2.262-.333.931-.5 1.954-.5 3.068 0 1.121.167 2.148.5 3.08.341.931.86 1.678 1.557 2.238.704.56 1.59.841 2.659.841Zm10.638 9.046v-24h3.318v2.829h.284a9.49 9.49 0 0 1 .852-1.261c.371-.478.886-.894 1.546-1.25.659-.364 1.53-.546 2.613-.546 1.41 0 2.667.356 3.773 1.068 1.106.712 1.973 1.739 2.602 3.08.637 1.34.955 2.955.955 4.84 0 1.887-.315 3.505-.943 4.853-.63 1.341-1.493 2.375-2.591 3.102-1.099.72-2.353 1.08-3.762 1.08-1.06 0-1.928-.178-2.602-.534-.667-.356-1.19-.773-1.568-1.25a9.458 9.458 0 0 1-.875-1.273h-.205v9.262h-3.397Zm3.33-15.273c0 1.227.177 2.303.533 3.227.356.924.871 1.648 1.546 2.17.674.516 1.5.773 2.477.773 1.015 0 1.864-.269 2.545-.807.682-.545 1.197-1.284 1.546-2.215.356-.932.534-1.982.534-3.148 0-1.152-.174-2.186-.523-3.102-.34-.917-.856-1.64-1.545-2.171-.682-.53-1.534-.796-2.557-.796-.985 0-1.818.254-2.5.762-.674.508-1.186 1.216-1.534 2.125-.349.909-.523 1.97-.523 3.182ZM98.136 25V7.545h3.284v2.773h.182c.318-.94.878-1.678 1.681-2.216.811-.545 1.728-.818 2.75-.818a14.532 14.532 0 0 1 1.444.08v3.25a6.142 6.142 0 0 0-.728-.125 6.938 6.938 0 0 0-1.045-.08c-.803 0-1.519.17-2.148.511-.621.334-1.114.8-1.477 1.398-.364.591-.546 1.265-.546 2.023V25h-3.397Zm17.728.352c-1.636 0-3.064-.375-4.284-1.125-1.22-.75-2.167-1.799-2.841-3.148-.674-1.348-1.011-2.924-1.011-4.727 0-1.81.337-3.394 1.011-4.75.674-1.356 1.621-2.409 2.841-3.159 1.22-.75 2.648-1.125 4.284-1.125 1.636 0 3.065.375 4.284 1.125 1.22.75 2.167 1.803 2.841 3.16.674 1.355 1.011 2.939 1.011 4.75 0 1.802-.337 3.378-1.011 4.726-.674 1.349-1.621 2.398-2.841 3.148-1.219.75-2.648 1.125-4.284 1.125Zm.011-2.852c1.061 0 1.94-.28 2.637-.84.697-.561 1.212-1.308 1.545-2.24.341-.931.512-1.958.512-3.08 0-1.113-.171-2.136-.512-3.067-.333-.94-.848-1.694-1.545-2.262-.697-.568-1.576-.852-2.637-.852-1.068 0-1.954.284-2.659.852-.697.569-1.216 1.322-1.556 2.262-.334.931-.5 1.954-.5 3.068 0 1.121.166 2.148.5 3.08.34.931.859 1.678 1.556 2.238.705.56 1.591.841 2.659.841Zm10.638 2.5V7.545h3.261v2.841h.216c.364-.962.959-1.712 1.784-2.25.826-.545 1.815-.818 2.966-.818 1.167 0 2.144.273 2.932.818.796.546 1.383 1.296 1.762 2.25h.181c.417-.931 1.08-1.674 1.989-2.227.909-.56 1.992-.84 3.25-.84 1.583 0 2.875.495 3.875 1.488 1.008.992 1.511 2.489 1.511 4.489V25h-3.397V13.614c0-1.182-.322-2.038-.966-2.569-.644-.53-1.413-.795-2.307-.795-1.106 0-1.966.34-2.58 1.023-.613.674-.92 1.541-.92 2.602V25h-3.386V13.398c0-.947-.296-1.709-.887-2.284-.591-.576-1.36-.864-2.307-.864-.644 0-1.238.17-1.784.511-.538.334-.973.8-1.307 1.398-.325.599-.488 1.292-.488 2.08V25h-3.398Zm27.001 6.546v-24h3.319v2.829h.284c.197-.364.481-.784.852-1.261.371-.478.886-.894 1.545-1.25.659-.364 1.531-.546 2.614-.546 1.409 0 2.667.356 3.773 1.068 1.106.712 1.973 1.739 2.602 3.08.636 1.34.955 2.955.955 4.84 0 1.887-.315 3.505-.944 4.853-.628 1.341-1.492 2.375-2.591 3.102-1.098.72-2.352 1.08-3.761 1.08-1.061 0-1.928-.178-2.602-.534-.667-.356-1.19-.773-1.568-1.25a9.393 9.393 0 0 1-.875-1.273h-.205v9.262h-3.398Zm3.33-15.273c0 1.227.178 2.303.534 3.227.356.924.871 1.648 1.545 2.17.675.516 1.5.773 2.478.773 1.015 0 1.863-.269 2.545-.807.682-.545 1.197-1.284 1.546-2.215.356-.932.534-1.982.534-3.148 0-1.152-.175-2.186-.523-3.102-.341-.917-.856-1.64-1.545-2.171-.682-.53-1.535-.796-2.557-.796-.985 0-1.818.254-2.5.762-.675.508-1.186 1.216-1.534 2.125-.349.909-.523 1.97-.523 3.182Zm23.288-8.728v2.728h-9.534V7.545h9.534Zm-6.977-4.181h3.398v16.511c0 .66.098 1.155.295 1.489.197.325.451.549.761.67.319.114.663.17 1.034.17.273 0 .512-.018.716-.056.205-.038.364-.069.478-.091l.613 2.807a5.69 5.69 0 0 1-.841.227c-.363.083-.818.129-1.363.136a5.981 5.981 0 0 1-2.5-.477 4.285 4.285 0 0 1-1.875-1.546c-.478-.696-.716-1.571-.716-2.625V3.364Zm25.338 11.92v1.693c-1.281 0-2.175.265-2.682.796-.508.53-.762 1.401-.762 2.613v3.273c0 1.16-.132 2.133-.397 2.92-.258.796-.656 1.432-1.194 1.91-.537.477-1.219.822-2.045 1.034-.826.212-1.799.318-2.92.318v-2.693c.878 0 1.564-.133 2.056-.398a2.07 2.07 0 0 0 1.023-1.204c.197-.538.296-1.224.296-2.057v-4.137c0-.583.087-1.12.261-1.613.174-.5.496-.932.966-1.296.469-.371 1.14-.655 2.011-.852.871-.205 2-.307 3.387-.307Zm-10-14.432c1.121 0 2.094.106 2.92.318.826.213 1.508.557 2.045 1.035.538.477.936 1.113 1.194 1.909.265.788.397 1.761.397 2.92v3.262c0 1.22.254 2.094.762 2.625.507.522 1.401.784 2.682.784v1.704c-1.387 0-2.516-.102-3.387-.307-.871-.204-1.542-.488-2.011-.852-.47-.364-.792-.792-.966-1.284a4.912 4.912 0 0 1-.261-1.625V7.205c0-.841-.099-1.53-.296-2.069a2.07 2.07 0 0 0-1.023-1.204c-.492-.258-1.178-.387-2.056-.387V.852Zm10 12.852v3.273h-3.148v-3.273h3.148Z"/></svg>