<svg xmlns="http://www.w3.org/2000/svg" width="145" height="64" fill="none" viewBox="0 0 145 64"><path fill="#717486" fill-opacity=".5" d="M21 31.384v-1.237c0-6.807-9.402-12.308-21-12.308v25.853C0 50.5 9.402 56 21 56s21-5.514 21-12.308-9.402-12.308-21-12.308Z"/><path fill="#717486" d="M42 8c-11.598 0-21 5.507-21 12.308v23.384c0 4.554-4.225 8.527-10.5 10.656A32.975 32.975 0 0 0 21 56c11.598 0 21-5.514 21-12.308V8ZM72 41.844 66.719 42l-.313-2.234c-.635.573-1.5 1.14-2.594 1.703-1.093.562-2.203.843-3.328.843-1.708 0-2.99-.5-3.843-1.5-.855-1-1.282-2.406-1.282-4.218v-9l-2.718-.64v-1.75l5.922-.157v11.219c0 1.135.223 1.974.671 2.515.448.542 1.183.813 2.203.813.813 0 1.558-.183 2.235-.547.687-.375 1.26-.787 1.719-1.234.458-.448.687-.693.687-.735v-9.484l-2.719-.64v-1.75l5.922-.157v14.39l2.719.641v1.766Zm9.618-10.563 3.828-6.078 4.64-.156v1.906l-2.718.485-4 5.921L87.46 39.5l2.953.734V42h-7.812v-1.766l1.281-.375-2.625-4.234L77.29 42h-4.64v-1.766l2.812-.734 4.078-5.984-4.109-6.11-2.453-.453v-1.75l7.297-.156v1.906l-1.125.203 2.469 4.125Zm14.57-4.703c1.573-1.24 3.172-1.86 4.797-1.86 2.24 0 3.917.745 5.031 2.235 1.125 1.48 1.688 3.51 1.688 6.094 0 1.833-.339 3.448-1.016 4.844a7.425 7.425 0 0 1-2.984 3.265c-1.323.771-2.922 1.157-4.797 1.157-1.042 0-2-.058-2.875-.172-.875-.115-1.573-.235-2.094-.36-.51-.135-.828-.224-.953-.265V19.922l-2.563-.64v-1.766l5.766-.157v9.22Zm0 12.86c0 .02.287.083.86.187.572.094 1.354.14 2.343.14 1.75 0 3.011-.588 3.782-1.765.781-1.177 1.171-2.724 1.171-4.64 0-1.876-.328-3.355-.984-4.438-.646-1.094-1.651-1.64-3.016-1.64-.854 0-1.593.155-2.218.468-.615.302-1.094.63-1.438.984-.333.354-.5.563-.5.625v10.078Zm22.071-14.72c2.364 0 4.208.766 5.531 2.298 1.323 1.52 1.984 3.583 1.984 6.187 0 1.792-.333 3.38-1 4.766-.656 1.385-1.593 2.458-2.812 3.218-1.208.75-2.604 1.126-4.188 1.126-2.427 0-4.312-.73-5.656-2.188-1.344-1.458-2.015-3.604-2.015-6.438 0-1.791.343-3.364 1.031-4.718.698-1.365 1.661-2.412 2.89-3.14 1.23-.74 2.641-1.11 4.235-1.11Zm-.156 2.563c-1.584 0-2.756.521-3.516 1.563-.75 1.031-1.125 2.588-1.125 4.672 0 4.156 1.495 6.24 4.484 6.25 1.563 0 2.698-.532 3.407-1.594.708-1.073 1.062-2.677 1.062-4.813 0-4.052-1.437-6.078-4.312-6.078Zm17.773 4 3.828-6.078 4.641-.156v1.906l-2.719.485-4 5.921 4.094 6.141 2.953.734V42h-7.812v-1.766l1.281-.375-2.625-4.234L131.548 42h-4.64v-1.766l2.812-.734 4.078-5.984-4.109-6.11-2.453-.453v-1.75l7.297-.156v1.906l-1.125.203 2.468 4.125Z"/></svg>