<svg width="258" height="258" viewBox="0 0 250 227" fill="none" xmlns="http://www.w3.org/2000/svg">
<path d="M245.69 105.302H190.56V94.6552C190.559 93.8914 190.355 93.1417 189.969 92.4828C189.582 91.8239 189.028 91.2794 188.362 90.9052L129.31 57.7155V40.819H140.991V47.2414C140.991 48.3846 141.445 49.4809 142.254 50.2892C143.062 51.0976 144.159 51.5517 145.302 51.5517H180.517C181.209 51.5513 181.891 51.3843 182.505 51.0649C183.118 50.7455 183.646 50.283 184.044 49.7165C184.441 49.15 184.696 48.4962 184.788 47.8103C184.879 47.1244 184.804 46.4266 184.569 45.7759L181.034 35.7328L184.612 25.9052C184.847 25.2544 184.922 24.5565 184.831 23.8706C184.74 23.1847 184.485 22.5308 184.087 21.9643C183.69 21.3978 183.162 20.9353 182.548 20.6159C181.934 20.2965 181.252 20.1296 180.56 20.1293H164.526V13.8793C164.526 12.7361 164.072 11.6398 163.263 10.8314C162.455 10.0231 161.359 9.56896 160.215 9.56896H129.31V4.31034C129.31 3.16717 128.856 2.07082 128.048 1.26247C127.24 0.454124 126.143 0 125 0C123.857 0 122.76 0.454124 121.952 1.26247C121.144 2.07082 120.69 3.16717 120.69 4.31034V57.7155L61.6379 90.8621C60.9721 91.2363 60.4177 91.7808 60.0315 92.4397C59.6452 93.0986 59.441 93.8483 59.4397 94.6121V105.259H4.31034C3.16717 105.259 2.07082 105.713 1.26247 106.521C0.454124 107.329 0 108.426 0 109.569L0 222.328C0 223.471 0.454124 224.567 1.26247 225.375C2.07082 226.184 3.16717 226.638 4.31034 226.638H245.69C246.833 226.638 247.929 226.184 248.738 225.375C249.546 224.567 250 223.471 250 222.328V109.612C250 108.469 249.546 107.373 248.738 106.564C247.929 105.756 246.833 105.302 245.69 105.302ZM164.526 36.5086L164.353 36.3362V28.9224H174.181L172.414 34.4397C172.061 35.3996 172.061 36.4538 172.414 37.4138L174.44 42.931H149.612V40.819H160.215C161.359 40.819 162.455 40.3648 163.263 39.5565C164.072 38.7481 164.526 37.6518 164.526 36.5086ZM129.31 18.1897H155.905V32.1983H129.31V18.1897ZM59.4397 218.017H8.62069V113.922H59.4397V218.017ZM120.69 218.017H98.0603V168.793H120.69V218.017ZM151.94 218.017H129.31V168.793H151.94V218.017ZM182.112 218.017H160.56V164.483C160.56 163.34 160.106 162.243 159.298 161.435C158.49 160.627 157.393 160.172 156.25 160.172H93.75C92.6068 160.172 91.5105 160.627 90.7021 161.435C89.8938 162.243 89.4397 163.34 89.4397 164.483V218.017H67.8879V97.3276L125 65.1724L181.94 97.1552L182.112 109.569V218.017ZM241.379 218.017H190.56V113.922H241.379V218.017Z" fill="#693CF3" fill-opacity="0.5"/>
<path d="M125 78.3621C115.018 78.3858 106.94 86.4838 106.94 96.4655C106.963 106.44 115.068 114.506 125.043 114.483C135.018 114.459 143.084 106.354 143.06 96.3793C143.037 86.4219 134.957 78.3621 125 78.3621ZM125 105.862C119.787 105.838 115.58 101.593 115.603 96.3793C115.627 91.1999 119.82 87.0065 125 86.9827C130.22 87.0065 134.44 91.2451 134.44 96.4655H134.483C134.459 101.679 130.213 105.886 125 105.862ZM19.0086 123.405H27.6293V140.647H19.0086V123.405ZM40.2586 123.405H48.8793V140.647H40.2586V123.405ZM80.9914 123.405H98.2327V132.026H80.9914V123.405ZM116.379 123.405H133.621V132.026H116.379V123.405ZM151.767 123.405H169.009V132.026H151.767V123.405ZM80.9914 143.491H98.2327V152.112H80.9914V143.491ZM116.379 143.491H133.621V152.112H116.379V143.491ZM151.767 143.491H169.009V152.112H151.767V143.491ZM19.0086 157.328H27.6293V174.569H19.0086V157.328ZM40.2586 157.328H48.8793V174.569H40.2586V157.328ZM19.0086 191.293H27.6293V208.534H19.0086V191.293ZM40.2586 191.293H48.8793V208.534H40.2586V191.293ZM201.121 123.405H209.741V140.647H201.121V123.405ZM222.371 123.405H230.991V140.647H222.371V123.405ZM201.121 157.328H209.741V174.569H201.121V157.328ZM222.371 157.328H230.991V174.569H222.371V157.328ZM201.121 191.293H209.741V208.534H201.121V191.293ZM222.371 191.293H230.991V208.534H222.371V191.293Z" fill="#693CF3" fill-opacity="0.5"/>
</svg>
