<svg width="258" height="258" viewBox="0 0 258 258" fill="none" xmlns="http://www.w3.org/2000/svg">
<path d="M93.1408 72.991V44.1192C93.1408 43.3875 92.8502 42.6857 92.3327 42.1683C91.8153 41.6509 91.1135 41.3602 90.3818 41.3602H53.0372C52.3055 41.3602 51.6037 41.6509 51.0863 42.1683C50.5689 42.6857 50.2782 43.3875 50.2782 44.1192V76.3214M86.8395 139.047V77.5181C86.8395 76.7177 87.1575 75.95 87.7235 75.384C88.2895 74.818 89.0572 74.5 89.8576 74.5H125.03M28.4708 254H9.03018C6.25201 254 4 251.748 4 248.97V238.986C4 236.208 6.25201 233.956 9.03018 233.956H248.97C251.748 233.956 254 236.208 254 238.986V248.97C254 251.748 251.748 254 248.97 254H46.078M238.735 136.492V232.446M193.466 103.783V69.1011C193.466 68.4341 193.731 67.7943 194.203 67.3227C194.675 66.851 195.314 66.586 195.981 66.586H236.22C236.887 66.586 237.527 66.851 237.998 67.3227C238.47 67.7943 238.735 68.4341 238.735 69.1011V118.885M225.173 48.6298H207.028C206.361 48.6298 205.721 48.8948 205.25 49.3664C204.778 49.8381 204.513 50.4778 204.513 51.1449V66.586H227.688V51.1449C227.688 50.4778 227.423 49.8381 226.951 49.3664C226.48 48.8948 225.84 48.6298 225.173 48.6298Z" stroke="#FF6E76" stroke-opacity="0.5" stroke-width="8" stroke-miterlimit="10" stroke-linecap="round" stroke-linejoin="round"/>
<path d="M108.249 139.047V96.998C108.249 96.4707 108.415 95.9567 108.723 95.5287C109.031 95.1008 109.466 94.7805 109.966 94.6132L170.051 74.5005M170.051 74.5005V99.0639M170.051 74.5005L125.533 89.4019V60.3114C125.533 59.784 125.699 59.2699 126.007 58.8419C126.315 58.4138 126.75 58.0935 127.25 57.9261L170.051 43.5991M170.051 74.5005V43.5991M170.051 43.5991V4" stroke="#FF6E76" stroke-opacity="0.5" stroke-width="8" stroke-miterlimit="10" stroke-linecap="round" stroke-linejoin="round"/>
<path d="M80.7097 158.645H137.848V144.693C137.848 142.001 135.665 139.818 132.973 139.818H85.5845C82.8923 139.818 80.7097 142.001 80.7097 144.693V158.645ZM80.7097 158.645H137.848V177.473H80.7097V158.645ZM142.818 29.5347V52.7198L170.051 43.6036V18.6086L144.535 27.1499C144.035 27.3172 143.6 27.6375 143.292 28.0654C142.984 28.4934 142.818 29.0074 142.818 29.5347ZM177.609 98.6765C165.914 98.6765 156.434 108.157 156.434 119.851V233.956H198.783V119.851C198.783 108.156 189.303 98.6765 177.609 98.6765Z" stroke="#FF6E76" stroke-opacity="0.5" stroke-width="8" stroke-miterlimit="10" stroke-linecap="round" stroke-linejoin="round"/>
<path d="M137.848 196.3V177.473H80.7098V196.3M137.848 196.3H80.7098M137.848 196.3V215.128H80.7098V196.3M216.101 48.1268V28.327M216.101 85.7415V97.2047M216.101 113.153V124.617M216.101 140.565V152.029M216.101 167.978V179.441M216.101 195.39V206.853M156.434 139.818L198.352 115.58M156.434 165.825L198.352 141.587M156.434 191.832L198.352 167.594M156.434 217.838L198.352 193.6M19.2651 95.3898L61.1308 122.323M19.2651 143.695L61.1308 170.628M19.2651 192L61.1308 218.933M80.7098 215.128H137.848V233.956H80.7098V215.128ZM61.1308 233.956H19.2651V60.1127C19.2651 58.9185 20.5866 58.1977 21.5906 58.8436L60.4382 83.835C60.6506 83.9717 60.8253 84.1595 60.9463 84.3813C61.0673 84.603 61.1308 84.8515 61.1308 85.1041V233.956Z" stroke="#FF6E76" stroke-opacity="0.5" stroke-width="8" stroke-miterlimit="10" stroke-linecap="round" stroke-linejoin="round"/>
</svg>
