<svg width="258" height="258" viewBox="0 0 258 220" fill="none" xmlns="http://www.w3.org/2000/svg">
<path fill-rule="evenodd" clip-rule="evenodd" d="M63.5946 0C51.1026 0 40.9606 10.142 40.9606 22.6341C40.9606 35.1236 51.1026 45.2656 63.5946 45.2656C76.0842 45.2656 86.2262 35.1236 86.2262 22.6341C86.2262 10.142 76.0842 0 63.5946 0ZM63.5946 7.89474C71.7263 7.89474 78.3315 14.4999 78.3315 22.6341C78.3315 30.7657 71.7263 37.3709 63.5946 37.3709C55.4605 37.3709 48.8553 30.7657 48.8553 22.6341C48.8553 14.4999 55.4605 7.89474 63.5946 7.89474ZM26.9787 85.9393C31.3181 69.7812 46.076 57.8762 63.5946 57.8762C79.9629 57.8762 93.9208 68.2737 99.2211 82.8182C99.9686 84.8656 102.234 85.9207 104.282 85.1761C106.329 84.4314 107.384 82.1631 106.639 80.1156C100.234 62.542 83.3684 49.9814 63.5946 49.9814C42.4289 49.9814 24.5973 64.3711 19.3552 83.8919C18.7893 85.9971 20.0396 88.1631 22.1445 88.7286C24.2473 89.2945 26.4157 88.0446 26.9787 85.9393Z" fill="#0AA482" fill-opacity="0.5"/>
<path fill-rule="evenodd" clip-rule="evenodd" d="M52.8421 66.1366L51.2421 74.4421C51.1258 75.0414 51.1503 75.6596 51.3138 76.2478C51.4773 76.836 51.7752 77.3782 52.1841 77.8316L59.8551 86.3525C60.6027 87.1843 61.671 87.6578 62.7893 87.6578C63.9075 87.6578 64.9734 87.1839 65.721 86.3525L72.6918 78.6105C73.089 78.1692 73.3816 77.6441 73.5479 77.0741C73.7142 76.5042 73.7499 75.9041 73.6524 75.3185L70.7447 57.9447C70.3843 55.7948 68.3472 54.3422 66.1973 54.7026C64.05 55.0629 62.5973 57.1001 62.9577 59.2475L65.5496 74.7422L62.7893 77.8105L59.3655 74.0078L60.5944 67.6343C61.0076 65.4947 59.605 63.4237 57.4654 63.0105C55.3263 62.5973 53.2553 64 52.8421 66.1366ZM78.3133 125.479H16.0764C15.9035 125.479 15.7323 125.445 15.5726 125.379C15.4128 125.313 15.2677 125.216 15.1455 125.094C15.0232 124.972 14.9263 124.827 14.8602 124.667C14.7941 124.507 14.7602 124.336 14.7604 124.163V99.4869C14.7604 97.3106 12.9895 95.5397 10.8132 95.5397C8.63447 95.5397 6.86605 97.3106 6.86605 99.4869V124.163C6.86605 129.25 10.9899 133.373 16.0764 133.373H78.3133C80.4925 133.373 82.2605 131.605 82.2605 129.426C82.2605 127.247 80.4921 125.479 78.3133 125.479Z" fill="#0AA482" fill-opacity="0.5"/>
<path fill-rule="evenodd" clip-rule="evenodd" d="M101.505 88.8632C101.873 88.9758 102.255 89.0326 102.639 89.0316C104.818 89.0316 106.587 87.2607 106.587 85.0844V84.9478C106.591 84.4268 106.492 83.9101 106.295 83.4276C106.099 82.945 105.808 82.5062 105.442 82.1363C105.075 81.7663 104.638 81.4727 104.157 81.2723C103.676 81.0718 103.16 80.9686 102.639 80.9684H9.21032C6.76768 80.9691 4.42517 81.9392 2.69721 83.6656C0.97084 85.3936 0.000770315 87.7361 9.25223e-09 90.1787L9.25224e-09 94.2233C-5.42043e-05 95.4328 0.238141 96.6306 0.700983 97.748C1.16383 98.8655 1.84225 99.8809 2.69752 100.736C3.55279 101.591 4.56815 102.27 5.68562 102.733C6.80309 103.196 8.00079 103.434 9.21032 103.434H107.903C110.082 103.434 111.85 101.665 111.85 99.4865C111.85 97.3102 110.081 95.5393 107.903 95.5393H9.21032C9.03736 95.5398 8.86602 95.5061 8.70613 95.4401C8.54624 95.3742 8.40096 95.2773 8.27864 95.155C8.03282 94.9072 7.89471 94.5724 7.89432 94.2233V90.1787C7.89465 89.8299 8.03342 89.4954 8.28016 89.2487C8.5269 89.002 8.86143 88.8634 9.21032 88.8632H101.505ZM186.405 0C173.916 0 163.774 10.142 163.774 22.6341C163.774 35.1236 173.916 45.2656 186.405 45.2656C198.897 45.2656 209.039 35.1236 209.039 22.6341C209.039 10.142 198.897 0 186.405 0ZM186.405 7.89474C194.54 7.89474 201.145 14.4999 201.145 22.6341C201.145 30.7657 194.54 37.3709 186.405 37.3709C178.274 37.3709 171.669 30.7657 171.669 22.6341C171.669 14.4999 178.274 7.89474 186.405 7.89474ZM150.779 82.8182C156.079 68.2733 170.037 57.8762 186.405 57.8762C203.924 57.8762 218.682 69.7816 223.021 85.9393C223.584 88.0446 225.753 89.2945 227.856 88.729C229.961 88.1631 231.211 85.9975 230.645 83.8923C225.403 64.3711 207.572 49.9818 186.406 49.9818C166.632 49.9818 149.766 62.5424 143.361 80.116C142.616 82.1635 143.671 84.4318 145.719 85.1765C147.766 85.9212 150.031 84.8656 150.779 82.8182Z" fill="#0AA482" fill-opacity="0.5"/>
<path fill-rule="evenodd" clip-rule="evenodd" d="M175.397 66.7211L174.042 74.5131C173.939 75.1025 173.972 75.7075 174.137 76.2824C174.303 76.8574 174.597 77.3871 174.997 77.8316L182.668 86.3525C183.416 87.1843 184.484 87.6578 185.602 87.6578C186.721 87.6578 187.787 87.1839 188.534 86.3525L195.505 78.6105C195.896 78.1769 196.186 77.6617 196.353 77.1024C196.521 76.543 196.562 75.9534 196.473 75.3763L193.566 56.213C193.24 54.0603 191.226 52.5762 189.071 52.9024C186.918 53.2289 185.434 55.2446 185.76 57.3973L188.389 74.7158L185.602 77.8105L182.147 73.9765L183.176 68.0764C183.55 65.929 182.111 63.8844 179.963 63.5104C177.818 63.1368 175.771 64.5738 175.397 66.7211ZM235.24 99.4869V124.163C235.24 124.336 235.206 124.507 235.14 124.667C235.074 124.826 234.977 124.972 234.854 125.094C234.732 125.216 234.587 125.313 234.427 125.379C234.268 125.445 234.096 125.479 233.924 125.479H171.295C169.118 125.479 167.347 127.247 167.347 129.426C167.347 131.605 169.118 133.373 171.295 133.373H233.924C239.011 133.373 243.134 129.25 243.134 124.163V99.4869C243.134 97.3106 241.366 95.5397 239.187 95.5397C237.011 95.5393 235.24 97.3106 235.24 99.4869Z" fill="#0AA482" fill-opacity="0.5"/>
<path fill-rule="evenodd" clip-rule="evenodd" d="M148.495 88.8632H240.79C241.139 88.8634 241.473 89.0021 241.72 89.2487C241.967 89.4954 242.105 89.8299 242.106 90.1788V94.2233C242.105 94.5724 241.967 94.9072 241.721 95.155C241.599 95.2772 241.454 95.3741 241.294 95.44C241.134 95.5059 240.963 95.5397 240.79 95.5393H158.76C156.582 95.5393 154.813 97.3102 154.813 99.4865C154.813 101.666 156.582 103.434 158.76 103.434H240.789C241.999 103.434 243.196 103.196 244.314 102.733C245.431 102.27 246.447 101.591 247.302 100.736C248.157 99.8809 248.836 98.8655 249.299 97.748C249.761 96.6306 250 95.4329 250 94.2233V90.1788C250 87.7367 249.029 85.3944 247.302 83.6657C245.574 81.9392 243.232 80.9691 240.789 80.9684H147.36C146.839 80.9686 146.323 81.0719 145.843 81.2724C145.362 81.4728 144.925 81.7664 144.558 82.1362C144.191 82.5061 143.901 82.9449 143.705 83.4274C143.508 83.9098 143.409 84.4264 143.413 84.9474V85.084C143.413 87.2603 145.181 89.0312 147.36 89.0312C147.745 89.0325 148.127 88.9759 148.495 88.8632Z" fill="#0AA482" fill-opacity="0.5"/>
<path fill-rule="evenodd" clip-rule="evenodd" d="M125 58.7736C110.479 58.7736 98.6919 70.563 98.6919 85.084C98.6919 99.6025 110.479 111.392 125 111.392C139.521 111.392 151.308 99.6025 151.308 85.084C151.308 70.563 139.521 58.7736 125 58.7736ZM125 66.6683C135.163 66.6683 143.413 74.9209 143.413 85.084C143.413 95.2446 135.163 103.497 125 103.497C114.837 103.497 106.587 95.2446 106.587 85.084C106.587 74.9209 114.837 66.6683 125 66.6683ZM80.4314 160.645C85.7131 140.976 103.679 126.484 125 126.484C146.321 126.484 164.286 140.976 169.568 160.645C170.134 162.75 172.3 164 174.405 163.434C176.508 162.868 177.758 160.703 177.192 158.598C171.008 135.564 149.971 118.59 125 118.59C100.029 118.59 78.992 135.564 72.8079 158.598C72.2419 160.703 73.4923 162.869 75.5947 163.434C77.6999 164 79.8659 162.75 80.4314 160.645Z" fill="#0AA482" fill-opacity="0.5"/>
<path fill-rule="evenodd" clip-rule="evenodd" d="M136.271 156.547L132.792 135.755C132.432 133.608 130.395 132.155 128.245 132.516C126.097 132.873 124.645 134.91 125.005 137.06L128.484 157.853C128.845 160 130.882 161.453 133.029 161.092C135.179 160.734 136.632 158.697 136.271 156.547ZM112.282 148.774L110.979 155.518C110.566 157.658 111.968 159.729 114.108 160.142C116.247 160.555 118.318 159.153 118.731 157.013L120.031 150.271C120.445 148.131 119.044 146.06 116.905 145.647C114.766 145.234 112.695 146.634 112.282 148.774Z" fill="#0AA482" fill-opacity="0.5"/>
<path fill-rule="evenodd" clip-rule="evenodd" d="M137.416 126.879L132.626 132.476C132.496 132.628 132.334 132.749 132.15 132.829C131.967 132.908 131.768 132.945 131.568 132.936C131.369 132.927 131.173 132.873 130.998 132.777C130.822 132.682 130.671 132.547 130.555 132.384L126.829 127.155C125.563 125.382 123.097 124.966 121.323 126.232C119.547 127.495 119.134 129.96 120.397 131.737L124.126 136.966C124.937 138.105 125.998 139.045 127.227 139.714C128.456 140.382 129.822 140.762 131.219 140.824C132.617 140.886 134.011 140.628 135.294 140.071C136.578 139.514 137.717 138.671 138.626 137.608L143.413 132.01C144.831 130.355 144.637 127.863 142.981 126.445C141.326 125.029 138.831 125.224 137.416 126.879Z" fill="#0AA482" fill-opacity="0.5"/>
<path fill-rule="evenodd" clip-rule="evenodd" d="M103.816 132.01L108.603 137.608C109.512 138.671 110.651 139.514 111.935 140.071C113.218 140.629 114.612 140.886 116.01 140.824C117.407 140.762 118.773 140.383 120.002 139.714C121.231 139.045 122.292 138.105 123.103 136.966C124.982 134.331 126.832 131.737 126.832 131.737C128.095 129.96 127.682 127.495 125.905 126.232C124.132 124.966 121.666 125.382 120.4 127.155L116.674 132.384C116.559 132.548 116.407 132.682 116.232 132.778C116.056 132.874 115.861 132.929 115.661 132.938C115.461 132.946 115.262 132.91 115.079 132.83C114.895 132.75 114.733 132.629 114.603 132.476L109.813 126.879C108.398 125.224 105.905 125.029 104.248 126.445C102.592 127.863 102.398 130.355 103.816 132.01ZM57.8869 192.366V207.626C57.8866 208.836 58.1247 210.034 58.5874 211.151C59.0502 212.269 59.7286 213.284 60.5839 214.14C61.4392 214.995 62.4547 215.673 63.5723 216.136C64.6898 216.599 65.8876 216.837 67.0972 216.837H182.902C184.112 216.837 185.31 216.599 186.427 216.136C187.545 215.673 188.56 214.994 189.415 214.139C190.27 213.284 190.949 212.269 191.412 211.151C191.875 210.034 192.113 208.836 192.113 207.626V177.06C192.113 174.881 190.344 173.113 188.166 173.113C185.989 173.113 184.218 174.882 184.218 177.06V207.626C184.218 207.975 184.079 208.31 183.833 208.556C183.586 208.803 183.251 208.942 182.902 208.942H67.0972C66.7483 208.942 66.4138 208.803 66.1671 208.556C65.9203 208.31 65.7816 207.975 65.7812 207.626V192.366C65.7812 190.187 64.0103 188.419 61.8341 188.419C59.6553 188.419 57.8869 190.187 57.8869 192.366Z" fill="#0AA482" fill-opacity="0.5"/>
<path fill-rule="evenodd" clip-rule="evenodd" d="M200.329 164.884C200.329 163.675 200.091 162.477 199.628 161.359C199.166 160.242 198.487 159.226 197.632 158.371C196.777 157.516 195.761 156.837 194.644 156.374C193.526 155.912 192.328 155.674 191.119 155.674H58.8817C57.6722 155.674 56.4745 155.912 55.357 156.375C54.2396 156.838 53.2242 157.516 52.3689 158.371C51.5137 159.227 50.8352 160.242 50.3724 161.36C49.9096 162.477 49.6714 163.675 49.6714 164.884V171.797C49.6711 173.007 49.9092 174.205 50.372 175.322C50.8347 176.44 51.5131 177.455 52.3685 178.311C53.2238 179.166 54.2392 179.844 55.3568 180.307C56.4743 180.77 57.6721 181.008 58.8817 181.008H191.119C192.328 181.008 193.526 180.769 194.643 180.307C195.761 179.844 196.776 179.165 197.631 178.31C198.487 177.455 199.165 176.439 199.628 175.322C200.091 174.205 200.329 173.007 200.329 171.797V164.884ZM192.434 164.884V171.797C192.434 172.147 192.297 172.482 192.05 172.726C191.928 172.849 191.782 172.946 191.623 173.012C191.463 173.079 191.291 173.113 191.118 173.113H58.8817C58.5329 173.113 58.1983 172.974 57.9516 172.727C57.7048 172.481 57.5661 172.146 57.5657 171.797V164.884C57.5661 164.535 57.7048 164.201 57.9516 163.954C58.1983 163.708 58.5329 163.569 58.8817 163.569H191.119C191.467 163.569 191.802 163.708 192.049 163.954C192.295 164.201 192.434 164.535 192.434 164.884Z" fill="#0AA482" fill-opacity="0.5"/>
</svg>
