<svg xmlns="http://www.w3.org/2000/svg" width="245" height="43" fill="none" viewBox="0 0 245 43"><path fill="#717485" d="M52.26 33 61.3 5.96h5.86L76.2 33h-4.22l-2.36-7.5H58.88L56.5 33h-4.24Zm7.32-10.26h9.34L64.28 8.38h-.06l-4.64 14.36ZM79.348 33V6h4.08v27h-4.08Zm7.428 0 7.84-11.84-7.56-11.86h4.62l5.92 10.18 5.86-10.18h4.58l-7.58 11.86 7.78 11.84h-4.62l-6.18-10.18L91.356 33h-4.58Zm31.74.2c-3.64 0-6.274-1.033-7.9-3.1-1.627-2.08-2.44-5.053-2.44-8.92 0-4.08.813-7.113 2.44-9.1 1.626-1.987 4.26-2.98 7.9-2.98 3.333 0 5.7.853 7.1 2.56 1.413 1.693 2.186 3.58 2.32 5.66l-3.62 1.2c-.054-1.987-.58-3.58-1.58-4.78-.987-1.2-2.394-1.8-4.22-1.8-1.867 0-3.374.673-4.52 2.02-1.134 1.347-1.7 3.753-1.7 7.22 0 3.24.573 5.587 1.72 7.04 1.146 1.44 2.646 2.16 4.5 2.16 1.813 0 3.22-.647 4.22-1.94 1-1.307 1.526-2.84 1.58-4.6l3.62 1.24c-.134 1.853-.907 3.673-2.32 5.46-1.414 1.773-3.78 2.66-7.1 2.66Zm12.749-.2V1.6h4.04V33h-4.04Zm14.92 0V19.48c0-2.76-.433-4.713-1.3-5.86-.853-1.147-2.113-1.72-3.78-1.72-1.666 0-3.06.62-4.18 1.86-1.12 1.227-1.68 2.773-1.68 4.64l-1.94-1.26c0-1.933.854-3.76 2.56-5.48 1.707-1.733 3.947-2.6 6.72-2.6 2.734 0 4.687.907 5.86 2.72 1.187 1.8 1.78 4.313 1.78 7.54V33h-4.04Zm15.261.22c-.854 0-1.687-.06-2.5-.18a8.657 8.657 0 0 1-2.24-.6 5.733 5.733 0 0 1-1.84-1.24c-.52-.547-.927-1.24-1.22-2.08-.294-.84-.44-1.86-.44-3.06 0-1.16.146-2.147.44-2.96.293-.813.693-1.48 1.2-2a5.576 5.576 0 0 1 1.8-1.24 8.65 8.65 0 0 1 2.22-.6c.786-.12 1.6-.18 2.44-.18h7.74v-1.34c0-1.427-.247-2.567-.74-3.42-.48-.867-1.16-1.493-2.04-1.88-.867-.387-1.874-.58-3.02-.58-1.054 0-1.987.18-2.8.54-.814.36-1.48.94-2 1.74s-.867 1.853-1.04 3.16l-3.96-1.06c.186-1.293.546-2.393 1.08-3.3a6.57 6.57 0 0 1 2.08-2.2c.853-.573 1.833-.993 2.94-1.26 1.12-.267 2.346-.4 3.68-.4 2.053 0 3.813.287 5.28.86 1.48.573 2.613 1.507 3.4 2.8.8 1.28 1.2 3.007 1.2 5.18V33h-3.4l-.34-3c-.134.333-.407.687-.82 1.06-.4.373-.934.727-1.6 1.06-.654.333-1.44.6-2.36.8-.92.2-1.967.3-3.14.3Zm.88-2.6c.893 0 1.72-.087 2.48-.26a8.975 8.975 0 0 0 2.02-.7c.586-.307 1.066-.647 1.44-1.02.386-.387.646-.787.78-1.2l.08-6.04h-6.9c-.654 0-1.274.06-1.86.18a4.27 4.27 0 0 0-1.58.66c-.454.32-.814.78-1.08 1.38-.254.6-.38 1.38-.38 2.34s.133 1.747.4 2.36c.266.6.633 1.067 1.1 1.4.48.333 1.02.567 1.62.7.6.133 1.226.2 1.88.2ZM176.657 33V9.3h3.16l.88 4.6V33h-4.04Zm14.86 0V19.48c0-2.76-.413-4.713-1.24-5.86-.813-1.147-2.053-1.72-3.72-1.72-1.68 0-3.1.62-4.26 1.86-1.146 1.227-1.72 2.773-1.72 4.64l-1.96-1.26c0-1.933.874-3.76 2.62-5.48 1.76-1.733 4.02-2.6 6.78-2.6 2.747 0 4.687.927 5.82 2.78 1.147 1.84 1.72 4.373 1.72 7.6V33h-4.04Zm16.883 9.28c-2.6 0-4.787-.587-6.56-1.76-1.76-1.16-2.747-3.167-2.96-6.02h3.98c.093 1.253.373 2.253.84 3a4.176 4.176 0 0 0 1.96 1.66c.84.347 1.793.52 2.86.52 1.773 0 3.193-.48 4.26-1.44 1.066-.96 1.6-2.807 1.6-5.54V14.14l1.04-4.84h3.02v23.02c0 2.533-.46 4.527-1.38 5.98-.907 1.467-2.067 2.493-3.48 3.08-1.4.6-3.127.9-5.18.9Zm-1.48-9.12c-2.84 0-4.98-1-6.42-3-1.427-2-2.14-5.02-2.14-9.06 0-4.04.706-7.053 2.12-9.04 1.426-1.987 3.56-2.98 6.4-2.98 2.6 0 4.793.667 6.58 2 1.786 1.333 2.68 2.7 2.68 4.1l-1.74 2.06c0-1.373-.607-2.607-1.82-3.7-1.2-1.093-2.647-1.64-4.34-1.64-1.774 0-3.18.653-4.22 1.96-1.04 1.293-1.56 3.713-1.56 7.26 0 3.547.52 5.973 1.56 7.28 1.04 1.293 2.446 1.94 4.22 1.94 1.693 0 3.14-.54 4.34-1.62 1.213-1.093 1.82-2.333 1.82-3.72l1.76 2.16c0 1.453-.894 2.82-2.68 4.1-1.774 1.267-3.96 1.9-6.56 1.9Zm25.025.04c-3.68 0-6.333-1.067-7.96-3.2-1.613-2.133-2.42-5.1-2.42-8.9 0-4 .827-7 2.48-9 1.653-2.013 4.267-3.02 7.84-3.02 3.667 0 6.287 1.007 7.86 3.02 1.587 2 2.38 4.98 2.38 8.94 0 .467-.027.9-.08 1.3h-17v-2.52h13.28l-.22.44c0-3.093-.547-5.28-1.64-6.56-1.093-1.293-2.62-1.94-4.58-1.94-1.907 0-3.453.673-4.64 2.02-1.173 1.347-1.76 3.787-1.76 7.32 0 3.347.567 5.76 1.7 7.24 1.147 1.467 2.733 2.2 4.76 2.2v2.66Zm0-2.66c1.16 0 2.167-.193 3.02-.58.867-.4 1.533-1.067 2-2 .48-.933.833-1.98 1.06-3.14l3.64.98c-.227 1.627-.753 3.007-1.58 4.14a7.161 7.161 0 0 1-3.2 2.48c-1.293.52-2.94.78-4.94.78v-2.66Z"/><g fill="#717485" clip-path="url(#clip0_81_71)"><path d="M32.123 1.979A3.923 3.923 0 0 0 31.28.66a2.317 2.317 0 0 0-.817-.524A2.258 2.258 0 0 0 29.512 0h-8.436l2.703 8.374h10.48L32.123 1.98ZM44.766 39.794l-9.693-28.986c-3.129 0-8.206.036-10.504 0l9.092 28.211.492 1.485c.11.38.321.723.608.988.33.341.88.512 1.652.512h7.31a1.27 1.27 0 0 0 .899-.392c.239-.247.374-.58.378-.93a2.827 2.827 0 0 0-.234-.888ZM.233 39.794 12.877 1.979c.19-.494.477-.943.841-1.318.235-.232.513-.41.818-.524.304-.113.628-.16.951-.137h.938l3.778 11.82-4.716 14.401h9.374l3.304 10.226a1.706 1.706 0 0 0-.612-.669 1.63 1.63 0 0 0-.858-.248H13.677c-.351 0-.694.114-.98.326-.285.212-.498.512-.61.857l-1.24 3.791c-.114.38-.324.72-.608.988-.344.355-.88.511-1.656.511H1.277a1.18 1.18 0 0 1-.49-.097 1.215 1.215 0 0 1-.41-.293 1.27 1.27 0 0 1-.283-.427A1.307 1.307 0 0 1 0 40.678c.03-.306.108-.605.233-.884Z"/></g><defs><clipPath id="clip0_81_71"><path fill="#fff" d="M0 0h45v42H0z"/></clipPath></defs></svg>