<svg xmlns="http://www.w3.org/2000/svg" width="137" height="31" fill="none" viewBox="0 0 137 31"><path fill="#717486" d="M5.332 7.424c-.226 0-.398-.241-.516-.725a4.765 4.765 0 0 0-.177-.5c-.29-.698-.435-1.304-.435-1.82 0-.43.252-.865.757-1.305.516-.451 1.085-.677 1.708-.677.311 0 .66.124 1.047.37.387.237.58.468.58.693 0 .355-.134.957-.402 1.805-.258.849-.677 1.423-1.257 1.724-.57.29-1.005.435-1.305.435ZM3.22 25.423c0 .816.112 1.735.338 2.755.043.194.065.355.065.484 0 .193-.178.44-.532.74-.355.312-.73.468-1.128.468C.922 29.87.4 28.914.4 27.002c0-1.977.408-5.103 1.224-9.378.28-1.493.42-2.412.42-2.755 0-.677.123-1.252.37-1.724.247-.484.596-.726 1.047-.726.548 0 .978.135 1.29.403.322.258.483.548.483.87 0 .323-.075.747-.226 1.273-.805 2.836-1.305 4.866-1.498 6.091-.194 1.225-.29 2.68-.29 4.367Zm16.444-8.814c-.558 0-1.17.365-1.837 1.096-.655.73-1.66 2.368-3.013 4.914-1.783 3.416-2.938 5.36-3.464 5.833-.516.473-.946.71-1.29.71-1.267 0-1.9-.613-1.9-1.838 0-.515.085-1.246.257-2.191.591-3.244.886-6.666.886-10.264 0-.409.172-.86.516-1.354.355-.505.688-.757 1-.757.558 0 .955.172 1.191.515.237.344.355 1.037.355 2.08 0 1.084-.322 3.318-.967 6.702-.215 1.117-.322 1.826-.322 2.127 0 .172.043.258.129.258.16 0 .908-1.284 2.24-3.851 1.342-2.61 2.519-4.447 3.528-5.51 1.01-1.064 2.122-1.596 3.336-1.596.967 0 1.75.44 2.352 1.321.613.881 1.058 2.487 1.338 4.818.3 2.653.57 4.308.805 4.963.247.645.634.967 1.16.967.334 0 .753-.118 1.257-.355a.494.494 0 0 1 .194-.064c.462 0 .693.268.693.806 0 .472-.317.977-.951 1.514-.634.527-1.396.79-2.288.79-.913 0-1.622-.36-2.127-1.08-.494-.73-.886-2.67-1.176-5.817-.301-3.158-.935-4.737-1.902-4.737ZM32.791 29.74c-.076.269-.28.494-.613.677a2.062 2.062 0 0 1-.999.274c-1.095 0-1.643-.8-1.643-2.401 0-.763.252-2.922.757-6.477.312-2.181.467-3.835.467-4.963 0-.194-.225-.446-.677-.758-.461-.3-.692-.596-.692-.886 0-.462.349-.961 1.047-1.498.537-.42.865-.887.983-1.402.129-.516.274-1.23.435-2.143.548-3.33 1.402-5.731 2.562-7.203C35.588 1.489 37.077.753 38.88.753c.956 0 1.767.328 2.433.983.666.645 1 1.45 1 2.417 0 .785-.188 1.676-.565 2.675-.365.988-.784 1.483-1.256 1.483-.355 0-.532-.178-.532-.532l.113-1.563c0-2.073-.58-3.11-1.74-3.11-1.257 0-2.3 1.235-3.127 3.706-.827 2.46-1.24 4.463-1.24 6.01 0 .494.322.742.967.742 2.803 0 4.452-.011 4.946-.033.505-.021.758.188.758.629 0 .44-.274.778-.822 1.015-.537.225-1.719.43-3.545.612-1.558.161-2.438.295-2.643.403-.72 3.996-1.08 7.557-1.08 10.683 0 .935.044 1.627.13 2.079.075.419.113.682.113.79Zm13.753-28.02c.774 0 1.16.493 1.16 1.482 0 .88-.467 2.975-1.401 6.284-.591 2.084-1.048 4.383-1.37 6.896-.322 2.514-.484 4.485-.484 5.914 0 1.772.113 3.534.339 5.285.043.333.064.575.064.725 0 .537-.182 1-.548 1.386-.365.387-.752.58-1.16.58-.57 0-.966-.354-1.192-1.064-.215-.709-.322-1.853-.322-3.432 0-3.598.43-8.056 1.289-13.374.87-5.317 1.557-8.427 2.062-9.33.516-.902 1.037-1.353 1.563-1.353Zm14.189 20.27c-1.375 2.31-2.782 4.098-4.222 5.365-1.44 1.268-2.777 1.902-4.012 1.902-.709 0-1.434-.414-2.175-1.24-.73-.828-1.096-2.101-1.096-3.82 0-1.407.338-3.48 1.015-6.22.57-2.288.854-3.894.854-4.817.312-.645.8-.967 1.466-.967.452 0 .811.161 1.08.483.269.312.403.64.403.983 0 .752-.263 1.821-.79 3.207-.999 2.696-1.498 5.01-1.498 6.944 0 1.762.408 2.643 1.224 2.643 1.042 0 2.369-.886 3.98-2.659 1.612-1.772 2.992-4.243 4.141-7.412.452-1.267.817-2.09 1.096-2.465.29-.387.677-.58 1.16-.58.73 0 1.096.483 1.096 1.45 0 .118-.102.51-.306 1.176-.645 2.353-.967 4.577-.967 6.671 0 2.514.414 4.141 1.24 4.883.43.397.645.72.645.966 0 .301-.22.575-.66.822-.43.247-.822.37-1.177.37-.752 0-1.358-.558-1.82-1.675-.462-1.117-.693-2.766-.693-4.947v-.531c0-.172.005-.35.016-.532Zm21.569 1.547c0 1.095-.973 2.417-2.917 3.963-1.934 1.547-3.932 2.32-5.994 2.32-1.73 0-3.067-.51-4.012-1.53-.935-1.02-1.402-2.444-1.402-4.27 0-3.072 1.036-5.994 3.11-8.766 2.073-2.771 4.34-4.157 6.8-4.157.805 0 1.46.263 1.965.79.516.526.774 1.16.774 1.901 0 1.654-.811 3.239-2.433 4.754-1.623 1.514-3.792 3.002-6.51 4.463-.559.29-.838.666-.838 1.128 0 .891.258 1.606.773 2.143.516.537 1.279.805 2.288.805 2.31 0 4.668-1.278 7.074-3.834.355-.355.623-.532.806-.532.344 0 .516.274.516.822Zm-11.2-2.514c4.555-2.707 6.833-4.882 6.833-6.526 0-.644-.29-.967-.87-.967-.989 0-2.106.725-3.352 2.175-1.235 1.45-2.105 3.223-2.61 5.318Zm24.566-4.415c-.558 0-1.17.365-1.837 1.096-.655.73-1.66 2.368-3.013 4.914-1.783 3.416-2.938 5.36-3.464 5.833-.516.473-.945.71-1.29.71-1.267 0-1.9-.613-1.9-1.838 0-.515.085-1.246.257-2.191.591-3.244.887-6.666.887-10.264 0-.409.171-.86.515-1.354.355-.505.688-.757 1-.757.558 0 .955.172 1.192.515.236.344.354 1.037.354 2.08 0 1.084-.322 3.318-.967 6.702-.215 1.117-.322 1.826-.322 2.127 0 .172.043.258.129.258.161 0 .908-1.284 2.24-3.851 1.342-2.61 2.519-4.447 3.529-5.51 1.01-1.064 2.121-1.596 3.335-1.596.967 0 1.75.44 2.352 1.321.613.881 1.059 2.487 1.338 4.818.301 2.653.569 4.308.806 4.963.247.645.633.967 1.16.967.333 0 .752-.118 1.257-.355a.489.489 0 0 1 .193-.064c.462 0 .693.268.693.806 0 .472-.317.977-.951 1.514-.634.527-1.396.79-2.288.79-.913 0-1.622-.36-2.127-1.08-.494-.73-.886-2.67-1.176-5.817-.301-3.158-.935-4.737-1.902-4.737Zm23.599 12.214a9.202 9.202 0 0 1-.805-.387c-.946-.473-2.224-.709-3.835-.709-.935 0-2.493.183-4.673.548-2.181.354-3.669.902-4.464 1.644-.547.483-1.122.725-1.724.725-.333 0-.703-.097-1.112-.29-.418-.194-.639-.457-.66-.79a71.38 71.38 0 0 1 2.095-2.191c4.844-4.92 8.529-9.002 11.053-12.247-.043-.096-.215-.145-.515-.145-.57 0-1.784.135-3.642.403-.838.13-1.708.194-2.61.194-2.202 0-3.304-.58-3.304-1.74 0-.881.489-1.322 1.467-1.322.053 0 .156.027.306.08.773.323 1.708.484 2.804.484 1.45 0 3.088-.118 4.914-.354.183-.033.398-.065.645-.097a7.43 7.43 0 0 0 .821-.129c.624-.107 1.118-.161 1.483-.161s.736.096 1.112.29c.386.193.553.505.499.934l-.016.065c-.236.934-3.078 4.308-8.524 10.12-1.31 1.406-2.014 2.239-2.111 2.497.043.107.151.16.323.16.15 0 .902-.144 2.255-.434 2.536-.548 4.458-.822 5.769-.822 2.052 0 3.078.623 3.078 1.87 0 .783-.21 1.385-.629 1.804Zm6.632.983c-1.472 0-2.686-.559-3.642-1.676s-1.434-2.498-1.434-4.141c0-2.772.929-5.5 2.788-8.186 1.869-2.696 4.103-4.044 6.703-4.044 1.719 0 3.11.66 4.173 1.982 1.074 1.321 1.612 2.895 1.612 4.72 0 2.794-1.107 5.383-3.32 7.768-2.202 2.384-4.495 3.577-6.88 3.577Zm-2.24-6.236c0 1.085.226 1.971.677 2.659.462.687 1.069 1.03 1.821 1.03 1.6 0 3.206-.875 4.818-2.626 1.611-1.761 2.417-3.716 2.417-5.865 0-1.321-.312-2.39-.935-3.207-.612-.827-1.439-1.24-2.481-1.24-1.73 0-3.218 1.063-4.464 3.19-1.235 2.116-1.853 4.136-1.853 6.059Z"/></svg>