<svg xmlns="http://www.w3.org/2000/svg" width="164" height="35" fill="none" viewBox="0 0 164 35"><path fill="#717485" d="M5.12 27.32c-2.04 0-3.52-1.4-3.52-4.72 0-4.36.28-12.84.28-16.64 0-3.4-1.64-2.56-1.64-3.6 0-1 2.04-1.52 3.44-1.52 1.68 0 2.48 1.08 2.48 3.56 0 3.56-.36 14.64-.36 17.44 0 3.56 2.32 2.48 2.32 3.64 0 1-1.44 1.84-3 1.84Zm12.244.12c-4.88 0-8.24-3.52-8.24-9.08 0-5.92 3.76-9.72 9.08-9.72 4.68 0 6.88 2.36 6.88 5.24 0 3.64-3.6 5.72-11.12 5.72-.28 0-.4.12-.4.32 0 3 2.2 4.64 4.76 4.64 3.44 0 4.76-2.12 5.68-2.12.44 0 .68.24.68.72 0 1.36-2.48 4.28-7.32 4.28Zm-3.32-9.68c5.08 0 6.76-1.52 6.76-3.84 0-1.88-.8-3.2-2.88-3.2-2.56 0-4.4 2.32-4.4 6.2 0 .64.16.84.52.84Zm27.954 9.48c-2.76 0-2.2-3.56-2.72-3.56-.48 0-1.64 3.64-5.96 3.64-4.36 0-6.8-3.76-6.8-9.28 0-5.56 3.28-9.4 7.52-9.4 3.76 0 5 2.84 5.4 2.84.4 0 1.32-2.76 2.64-2.76.88 0 1.24.56 1.24 1.48 0 1.08-.56 5.2-.56 8.6 0 7 2.36 5.48 2.36 6.64 0 1.12-1.88 1.8-3.12 1.8Zm-7.4-2.56c2.64 0 4-3.32 4-7.48 0-3.16-1.12-6.32-3.68-6.32s-4 3.12-4 7.08 1.28 6.72 3.68 6.72Zm14.98 2.52c-1.64 0-2.24-.52-2.24-1.28 0-.48.32-6.36.32-9.08 0-6.4-2.36-5.2-2.36-6.24 0-1.12 2.2-1.76 3.4-1.76 3.04 0 2.24 4.44 2.76 4.44.52 0 1.44-4.48 5.16-4.48 1.56 0 2.36.64 2.36 1.52 0 1.32-.4 3.24-1.24 3.24-.92 0-1.44-1.08-2.52-1.08-1.56 0-3.52 2.08-3.52 8 0 2.44.12 4.84.12 5.32 0 .52-.12 1.4-2.24 1.4Zm14.226 0c-1.48 0-2.16-.52-2.16-1.28s.44-5.72.44-9.64c0-5.68-2.36-4.64-2.36-5.68 0-1.12 2.2-1.76 3.4-1.76 2.84 0 2.2 3.48 2.72 3.48.48 0 1.76-3.68 6.2-3.68 3.92 0 5.28 3.08 5.28 5.92 0 2.16-.52 4.92-.52 6.88 0 4 2.36 2.96 2.36 4s-1.4 1.88-2.96 1.88c-2.04 0-3.52-1.44-3.52-4.96 0-2.56.4-5.56.4-7.64 0-2.16-.88-3.4-2.44-3.4-2.32 0-4.52 2.64-4.52 9.52v5c0 .84-.44 1.36-2.32 1.36Zm25.138.24c-5.32 0-8.72-3.6-8.72-9.36 0-5.8 3.4-9.4 8.72-9.4s8.72 3.6 8.72 9.36c0 5.8-3.4 9.4-8.72 9.4Zm0-2.12c2.72 0 4.2-2.48 4.2-7.28 0-4.84-1.44-7.24-4.2-7.24-2.76 0-4.24 2.4-4.24 7.24 0 4.8 1.52 7.28 4.24 7.28Zm15.111 2c-2.04 0-3.52-1.4-3.52-4.72 0-4.36.28-12.84.28-16.64 0-3.4-1.64-2.56-1.64-3.6 0-1 2.04-1.52 3.44-1.52 1.68 0 2.48 1.08 2.48 3.56 0 3.56-.36 14.64-.36 17.44 0 3.56 2.32 2.48 2.32 3.64 0 1-1.44 1.84-3 1.84Zm12.724.12c-5.32 0-8.72-3.6-8.72-9.36 0-5.8 3.4-9.4 8.72-9.4s8.72 3.6 8.72 9.36c0 5.8-3.4 9.4-8.72 9.4Zm0-2.12c2.72 0 4.2-2.48 4.2-7.28 0-4.84-1.44-7.24-4.2-7.24-2.76 0-4.24 2.4-4.24 7.24 0 4.8 1.52 7.28 4.24 7.28Zm18.75 9c-4.04 0-7-2.28-7-3.52 0-1.24.76-2.76 1.56-2.76 1.32 0 2.32 4.08 5.76 4.08 3.32 0 3.84-1.88 3.96-5.16.04-.56.04-2.08.04-2.36 0-.48-.04-.56-.2-.56-.36 0-1.4 2.76-5.36 2.76-3.88 0-7.04-3.2-7.04-8.84 0-5.48 3.16-9.32 7.6-9.32 3.68 0 4.92 2.84 5.32 2.84.4 0 1.32-2.76 2.68-2.76.84 0 1.2.56 1.2 1.48 0 1.04-.4 4.08-.4 8.8v7.24c0 4.44-1.8 8.08-8.12 8.08Zm-.12-9.88c2.56 0 4.04-3 4.04-6.96 0-3.12-1.12-6.6-3.76-6.6-2.64 0-4.04 3.04-4.04 6.88 0 3.88 1.24 6.68 3.76 6.68Zm19.227 9.88c-4.12 0-7-2.28-7-3.52 0-1.24.76-2.76 1.56-2.76 1.32 0 2.32 4.08 5.76 4.08 3.04 0 3.88-1.56 3.88-6v-1.96c0-.48 0-.56-.12-.56-.4 0-1.8 3.04-5.64 3.04-4.24 0-5.44-2.88-5.44-5.88 0-2.24.24-4.12.24-6.24 0-3.76-1.64-2.88-1.64-3.96 0-1 1.84-1.68 3.28-1.68 1.6 0 2.6 1.36 2.6 4.08 0 3.12-.28 5.48-.28 7.68 0 2.32.88 3.52 2.44 3.52 2.32 0 4.32-2.68 4.32-8.24v-5.64c0-.84.48-1.36 2.32-1.36 1.52 0 2.16.52 2.16 1.28s-.4 5.24-.4 9.16v6.52c0 4.64-1.72 8.44-8.04 8.44Z"/></svg>