<svg xmlns="http://www.w3.org/2000/svg" width="226" height="60" fill="none" viewBox="0 0 226 60"><path fill="#717485" d="M78.705 36.125c.125 1.406.476 2.484 1.054 3.234 1.063 1.36 2.907 2.04 5.532 2.04 1.562 0 2.937-.337 4.125-1.008 1.187-.688 1.78-1.743 1.78-3.164 0-1.079-.476-1.899-1.429-2.461-.61-.344-1.812-.743-3.61-1.196l-3.35-.843c-2.141-.532-3.72-1.125-4.735-1.782-1.813-1.14-2.719-2.718-2.719-4.734 0-2.375.852-4.297 2.555-5.766 1.719-1.468 4.023-2.203 6.914-2.203 3.781 0 6.508 1.11 8.18 3.328 1.046 1.407 1.554 2.922 1.523 4.547h-3.984a4.88 4.88 0 0 0-1.008-2.601c-.969-1.11-2.649-1.664-5.04-1.664-1.593 0-2.804.304-3.632.914-.813.609-1.219 1.414-1.219 2.414 0 1.093.54 1.968 1.617 2.625.625.39 1.547.734 2.766 1.03l2.79.68c3.03.735 5.062 1.446 6.093 2.133 1.64 1.079 2.46 2.774 2.46 5.086 0 2.235-.85 4.164-2.554 5.79-1.687 1.624-4.266 2.437-7.734 2.437-3.735 0-6.383-.844-7.946-2.531-1.546-1.703-2.375-3.805-2.484-6.305h4.055Zm20.532-17.227h4.008v3.563c1.187-1.469 2.445-2.523 3.773-3.164 1.328-.64 2.805-.961 4.43-.961 3.562 0 5.969 1.242 7.219 3.727.687 1.359 1.031 3.304 1.031 5.835V44h-4.289V28.18c0-1.532-.227-2.766-.68-3.703-.75-1.563-2.109-2.344-4.078-2.344-1 0-1.82.101-2.461.305-1.156.343-2.172 1.03-3.047 2.062-.703.828-1.164 1.688-1.383 2.578-.203.875-.304 2.133-.304 3.774V44h-4.22V18.898Zm35.72 22.383c2.796 0 4.711-1.054 5.742-3.164 1.047-2.125 1.57-4.484 1.57-7.078 0-2.344-.375-4.25-1.125-5.719-1.187-2.312-3.234-3.468-6.141-3.468-2.578 0-4.453.984-5.625 2.953-1.171 1.968-1.757 4.343-1.757 7.125 0 2.672.586 4.898 1.757 6.68 1.172 1.78 3.032 2.671 5.579 2.671Zm.164-23.11c3.234 0 5.968 1.079 8.203 3.235 2.234 2.157 3.351 5.328 3.351 9.516 0 4.047-.984 7.39-2.953 10.031-1.969 2.64-5.023 3.961-9.164 3.961-3.453 0-6.195-1.164-8.226-3.492-2.032-2.344-3.047-5.484-3.047-9.422 0-4.219 1.07-7.578 3.211-10.078 2.14-2.5 5.015-3.75 8.625-3.75Zm25.594 23.11c2.797 0 4.711-1.054 5.743-3.164 1.046-2.125 1.57-4.484 1.57-7.078 0-2.344-.375-4.25-1.125-5.719-1.188-2.312-3.235-3.468-6.141-3.468-2.578 0-4.453.984-5.625 2.953-1.172 1.968-1.758 4.343-1.758 7.125 0 2.672.586 4.898 1.758 6.68 1.172 1.78 3.031 2.671 5.578 2.671Zm.164-23.11c3.235 0 5.969 1.079 8.204 3.235 2.234 2.157 3.351 5.328 3.351 9.516 0 4.047-.984 7.39-2.953 10.031-1.969 2.64-5.023 3.961-9.164 3.961-3.453 0-6.195-1.164-8.227-3.492-2.031-2.344-3.047-5.484-3.047-9.422 0-4.219 1.071-7.578 3.211-10.078 2.141-2.5 5.016-3.75 8.625-3.75Zm26.228 22.993c1.969 0 3.601-.82 4.898-2.46 1.313-1.657 1.969-4.126 1.969-7.407 0-2-.289-3.719-.867-5.156-1.094-2.766-3.094-4.149-6-4.149-2.922 0-4.922 1.461-6 4.383-.578 1.563-.867 3.547-.867 5.953 0 1.938.289 3.586.867 4.945 1.094 2.594 3.094 3.891 6 3.891Zm-10.922-22.148h4.102v3.328c.843-1.14 1.765-2.024 2.765-2.649 1.422-.937 3.094-1.406 5.016-1.406 2.844 0 5.258 1.094 7.242 3.281 1.984 2.172 2.977 5.282 2.977 9.328 0 5.47-1.43 9.375-4.289 11.72-1.813 1.484-3.922 2.226-6.329 2.226-1.89 0-3.476-.414-4.757-1.242-.75-.47-1.586-1.274-2.508-2.414v12.82h-4.219V19.016Zm29.321 18.304c0 1.22.446 2.18 1.336 2.883.891.703 1.945 1.055 3.164 1.055 1.485 0 2.922-.344 4.313-1.031 2.343-1.141 3.515-3.008 3.515-5.602v-3.398c-.515.328-1.179.601-1.992.82a16.96 16.96 0 0 1-2.39.469l-2.555.328c-1.531.203-2.68.523-3.445.96-1.297.735-1.946 1.907-1.946 3.516Zm10.219-8.53c.969-.126 1.617-.532 1.945-1.22.188-.375.282-.914.282-1.617 0-1.437-.516-2.476-1.547-3.117-1.016-.656-2.477-.984-4.383-.984-2.203 0-3.766.593-4.688 1.78-.515.657-.851 1.634-1.007 2.93h-3.938c.078-3.093 1.078-5.242 3-6.445 1.938-1.219 4.18-1.828 6.727-1.828 2.953 0 5.351.563 7.195 1.688 1.828 1.125 2.742 2.875 2.742 5.25v14.46c0 .438.086.79.258 1.055.187.266.57.399 1.148.399.188 0 .399-.008.633-.024a17.8 17.8 0 0 0 .75-.117v3.117c-.656.188-1.156.305-1.5.352-.344.047-.812.07-1.406.07-1.453 0-2.508-.516-3.164-1.547-.344-.547-.586-1.32-.727-2.32-.859 1.125-2.093 2.101-3.703 2.93-1.609.828-3.383 1.242-5.32 1.242-2.328 0-4.235-.703-5.719-2.11-1.469-1.422-2.203-3.195-2.203-5.32 0-2.328.727-4.133 2.18-5.414 1.453-1.281 3.359-2.07 5.718-2.367l6.727-.844Z"/><g fill="#717485" clip-path="url(#clip0_79_43)"><path d="M60 39.838V13.906C60 8.27 55.36 3.72 49.723 3.72H10.261C4.625 3.719 0 8.27 0 13.906v25.932c0 3.444 1.735 6.5 4.354 8.352l-.315.005h-.013A3.98 3.98 0 0 0 .04 52.16a3.966 3.966 0 0 0 3.972 3.976l51.803.143h.015a3.968 3.968 0 0 0 1.536-7.636c-.482-.201-1-.305-1.523-.306l-.44.002C58.151 46.51 60 43.385 60 39.838ZM5.176 13.906c0-2.764 2.32-5.01 5.085-5.01h39.462c2.762 0 4.94 2.246 4.94 5.01v25.932c0 2.762-2.175 4.961-4.94 4.961H10.261c-2.765 0-5.085-2.199-5.085-4.961V13.906Z"/><path d="M15.102 37.998a4.343 4.343 0 0 0 3.93-6.194l5.012-5.65a4.337 4.337 0 0 0 3.998-.543l5.917 4.033a4.345 4.345 0 0 0 7.973 2.869 4.344 4.344 0 0 0 .443-3.75l5.56-7a1.987 1.987 0 1 0-3.113-2.471l-5.335 6.718a4.336 4.336 0 0 0-3.286.35l-6.331-4.314a4.343 4.343 0 1 0-8.534 1.172l-5.468 6.162a4.344 4.344 0 1 0-.766 8.618Z"/></g><defs><clipPath id="clip0_79_43"><path fill="#fff" d="M0 0h60v60H0z"/></clipPath></defs></svg>