<svg xmlns="http://www.w3.org/2000/svg" width="351" height="58" fill="none" viewBox="0 0 351 58"><path fill="#717485" d="M101.8 21.824c0 .48-.24.768-.72.864-.096 0-.24.032-.432.096-.192.032-.448.08-.768.144a6.275 6.275 0 0 0-.816.192c-.16.032-.288.048-.384.048L91.912 44h-3.36c-.448 0-.736-.256-.864-.768L82.312 26.72a11.43 11.43 0 0 1-.336-1.152l-.096-.48a3.79 3.79 0 0 0-.144-.576l-.096.576-.096.576-.288 1.056-5.472 16.464c-.192.544-.512.816-.96.816H71.56l-6.72-20.88c-.16 0-.432-.048-.816-.144a59.518 59.518 0 0 1-1.008-.24 2.626 2.626 0 0 0-.576-.096c-.512-.096-.768-.4-.768-.912v-2.016H72.52v2.016c0 .512-.24.816-.72.912-.384.096-.784.176-1.2.24l-1.44.288L73 36.224c.064.32.128.608.192.864s.112.48.144.672c.224 1.056.336 1.648.336 1.776.096-.512.416-1.616.96-3.312L79.72 20.48c.192-.576.576-.864 1.152-.864h1.872c.608 0 1.008.288 1.2.864l5.04 15.744.864 3.264c.192-1.152.432-2.24.72-3.264l3.936-13.056c-.16 0-1.088-.176-2.784-.528-.512-.096-.768-.4-.768-.912v-2.016l10.848.048v2.064Zm12.775-2.496c1.408 0 2.736.24 3.984.72 1.28.48 2.336 1.168 3.168 2.064.96 1.024 1.664 2.16 2.112 3.408.512 1.44.768 2.976.768 4.608 0 .736-.064 1.184-.192 1.344-.16.224-.448.336-.864.336h-16.128c0 1.536.192 2.88.576 4.032.32.992.864 1.92 1.632 2.784.704.8 1.504 1.376 2.4 1.728.96.384 1.984.576 3.072.576 1.152 0 2.08-.112 2.784-.336a17.732 17.732 0 0 0 2.016-.816c.704-.352 1.184-.608 1.44-.768.416-.256.736-.384.96-.384.352 0 .624.144.816.432l1.2 1.584c-.448.576-1.088 1.12-1.92 1.632-.96.608-1.744 1.008-2.352 1.2-.96.32-1.824.544-2.592.672-.96.16-1.84.24-2.64.24-1.664 0-3.216-.288-4.656-.864-1.376-.544-2.608-1.392-3.696-2.544-1.024-1.056-1.824-2.416-2.4-4.08-.576-1.632-.864-3.488-.864-5.568 0-1.664.272-3.232.816-4.704.544-1.504 1.296-2.784 2.256-3.84a10.365 10.365 0 0 1 3.6-2.544c1.408-.608 2.976-.912 4.704-.912Zm.096 3.12c-2.08 0-3.696.592-4.848 1.776-1.184 1.248-1.92 2.912-2.208 4.992h13.2c0-.992-.144-1.888-.432-2.688-.352-.992-.736-1.712-1.152-2.16a6.26 6.26 0 0 0-1.968-1.392c-.736-.32-1.616-.48-2.64-.48l.048-.048Zm36.825 9.408c0 2.016-.288 3.792-.864 5.328-.608 1.6-1.376 2.912-2.304 3.936a9.779 9.779 0 0 1-3.36 2.4c-1.28.576-2.688.864-4.224.864-2.72 0-6.304-.448-10.752-1.344V12.128l-1.056-.144-2.016-.336a.79.79 0 0 1-.528-.288 1.103 1.103 0 0 1-.192-.624V8.672h8.112v14.544c1.024-1.184 2.176-2.128 3.456-2.832 1.28-.704 2.752-1.056 4.416-1.056 1.44 0 2.72.256 3.84.768 1.12.512 2.08 1.312 2.88 2.4.8 1.12 1.408 2.4 1.824 3.84.448 1.6.672 3.392.672 5.376h.096v.144Zm-6.288 6.672c.608-.8 1.072-1.76 1.392-2.88.32-1.184.48-2.4.48-3.648v-.384c0-1.664-.128-3.008-.384-4.032-.288-1.088-.704-2.016-1.248-2.784-.576-.768-1.216-1.312-1.92-1.632-.736-.32-1.616-.48-2.64-.48-1.472 0-2.704.32-3.696.96-1.056.672-2.016 1.584-2.88 2.736v13.872c.448.128 1.12.288 2.016.48.928.16 1.856.256 2.784.288h1.248c1.056-.064 1.92-.256 2.592-.576.832-.384 1.568-.992 2.208-1.824l.048-.096Zm20.228-29.28c1.44 0 2.784.192 4.032.576 1.152.352 2.208.96 3.168 1.824a8.318 8.318 0 0 1 2.064 2.784 8.444 8.444 0 0 1 .768 3.552c0 1.088-.144 2.064-.432 2.928a8.026 8.026 0 0 1-1.2 2.256c-.448.576-1.088 1.12-1.92 1.632-.672.416-1.504.784-2.496 1.104 2.24.576 3.936 1.568 5.088 2.976 1.12 1.344 1.68 3.088 1.68 5.232 0 1.536-.304 2.96-.912 4.272-.608 1.344-1.408 2.416-2.4 3.216a11.525 11.525 0 0 1-3.648 2.064c-1.376.48-2.864.72-4.464.72-1.888 0-3.44-.224-4.656-.672-1.312-.48-2.416-1.12-3.312-1.92a10.09 10.09 0 0 1-2.208-2.832 23.11 23.11 0 0 1-1.488-3.6l1.824-.768c.288-.128.64-.192 1.056-.192.32 0 .592.064.816.192.256.16.432.384.528.672 0 .032.016.064.048.096s.048.064.048.096.016.08.048.144c.032.032.048.064.048.096.064.16.32.688.768 1.584.32.64.752 1.184 1.296 1.632.512.416 1.2.832 2.064 1.248.832.384 1.824.576 2.976.576 1.216 0 2.272-.192 3.168-.576.96-.416 1.728-.928 2.304-1.536.608-.672 1.056-1.376 1.344-2.112.32-.864.48-1.616.48-2.256 0-.864-.128-1.712-.384-2.544a4.327 4.327 0 0 0-1.344-2.016c-.64-.544-1.536-.96-2.688-1.248-1.28-.32-2.752-.48-4.416-.48v-3.12c1.216 0 2.464-.176 3.744-.528a7.046 7.046 0 0 0 2.496-1.248c.704-.544 1.184-1.168 1.44-1.872a6.914 6.914 0 0 0 .432-2.448c0-.96-.144-1.824-.432-2.592-.256-.672-.704-1.28-1.344-1.824a5.65 5.65 0 0 0-1.92-1.056 8.152 8.152 0 0 0-2.4-.384c-.928 0-1.728.128-2.4.384-.864.32-1.52.672-1.968 1.056-.608.512-1.088 1.056-1.44 1.632a7.832 7.832 0 0 0-.864 2.064c-.096.48-.288.816-.576 1.008a1.775 1.775 0 0 1-1.008.288h-.576l-2.208-.384c.192-1.6.624-2.992 1.296-4.176a11.41 11.41 0 0 1 2.448-3.024c.928-.8 2.048-1.424 3.36-1.872 1.216-.416 2.592-.624 4.128-.624h.144Zm22.67 10.08c1.664 0 3.776.432 6.336 1.296v6.24h-1.872c-.448 0-.72-.224-.816-.672l-.288-3.168c-1.504-.352-2.752-.528-3.744-.528h-.048c-1.312 0-2.416.352-3.312 1.056-.864.672-1.296 1.408-1.296 2.208 0 .832.192 1.44.576 1.824.64.736 1.568 1.296 2.784 1.68l1.44.432c.256.064.768.224 1.536.48l2.304.864c.64.224 1.312.64 2.016 1.248 1.312 1.024 1.968 2.432 1.968 4.224 0 2.336-.784 4.192-2.352 5.568-1.696 1.504-3.84 2.256-6.432 2.256-2.656 0-5.28-.432-7.872-1.296v-6.336h1.728c.384 0 .624.192.72.576l.288 3.072c1.28.64 2.928.96 4.944.96 1.536 0 2.784-.4 3.744-1.2.832-.736 1.248-1.552 1.248-2.448 0-.928-.192-1.6-.576-2.016-.448-.512-.928-.896-1.44-1.152a9.914 9.914 0 0 0-2.016-.768c-2.368-.768-3.856-1.28-4.464-1.536-.768-.352-1.488-.8-2.16-1.344-1.344-1.12-2.016-2.624-2.016-4.512 0-1.92.768-3.552 2.304-4.896 1.6-1.408 3.856-2.112 6.768-2.112Zm16.375 4.128c2.336-2.816 5.056-4.224 8.16-4.224 2.848 0 5.088 1.056 6.72 3.168 1.664 2.24 2.496 5.344 2.496 9.312 0 3.648-.928 6.64-2.784 8.976-1.952 2.432-4.416 3.648-7.392 3.648s-5.312-.944-7.008-2.832v7.2l1.296.288 1.392.288c.512.096.768.4.768.912v2.064h-11.232v-2.064c0-.512.256-.816.768-.912l2.688-.528V23.216c-1.472-.288-2.368-.48-2.688-.576-.512-.096-.768-.4-.768-.912v-2.016h6.048c.576 0 .96.288 1.152.864l.336 2.88h.048Zm.192 14.688c1.44 1.92 3.296 2.88 5.568 2.88 2.368 0 4.16-.8 5.376-2.4 1.216-1.6 1.824-3.904 1.824-6.912 0-2.976-.528-5.216-1.584-6.72-1.056-1.536-2.608-2.304-4.656-2.304-2.528 0-4.704 1.232-6.528 3.696v11.76Zm31.299-18.816c1.408 0 2.736.24 3.984.72 1.28.48 2.336 1.168 3.168 2.064.96 1.024 1.664 2.16 2.112 3.408.512 1.44.768 2.976.768 4.608 0 .736-.064 1.184-.192 1.344-.16.224-.448.336-.864.336H228.82c0 1.536.192 2.88.576 4.032.32.992.864 1.92 1.632 2.784.704.8 1.504 1.376 2.4 1.728.96.384 1.984.576 3.072.576 1.152 0 2.08-.112 2.784-.336a17.732 17.732 0 0 0 2.016-.816c.704-.352 1.184-.608 1.44-.768.416-.256.736-.384.96-.384.352 0 .624.144.816.432l1.2 1.584c-.448.576-1.088 1.12-1.92 1.632-.96.608-1.744 1.008-2.352 1.2-.96.32-1.824.544-2.592.672-.96.16-1.84.24-2.64.24-1.664 0-3.216-.288-4.656-.864-1.376-.544-2.608-1.392-3.696-2.544-1.024-1.056-1.824-2.416-2.4-4.08-.576-1.632-.864-3.488-.864-5.568 0-1.664.272-3.232.816-4.704.544-1.504 1.296-2.784 2.256-3.84a10.365 10.365 0 0 1 3.6-2.544c1.408-.608 2.976-.912 4.704-.912Zm.096 3.12c-2.08 0-3.696.592-4.848 1.776-1.184 1.248-1.92 2.912-2.208 4.992h13.2c0-.992-.144-1.888-.432-2.688-.352-.992-.736-1.712-1.152-2.16a6.26 6.26 0 0 0-1.968-1.392c-.736-.32-1.616-.48-2.64-.48l.048-.048Zm32.714 18.144c-2.016 2.496-5.024 3.744-9.024 3.744-3.072 0-5.6-1.104-7.584-3.312-2.08-2.336-3.12-5.408-3.12-9.216 0-3.712.976-6.704 2.928-8.976 2.048-2.336 4.896-3.504 8.544-3.504 1.824 0 4.224.576 7.2 1.728v6.336h-1.92c-.448 0-.72-.224-.816-.672-.032-.096-.096-.704-.192-1.824l-.144-1.584a6.479 6.479 0 0 0-1.056-.288 16.82 16.82 0 0 1-.672-.144 18.327 18.327 0 0 0-2.688-.192c-.832 0-1.712.208-2.64.624-.864.384-1.616.976-2.256 1.776-1.216 1.6-1.824 3.84-1.824 6.72s.64 5.152 1.92 6.816c1.248 1.6 2.96 2.4 5.136 2.4 2.016 0 3.792-.672 5.328-2.016.256-.256.576-.384.96-.384.352 0 .608.128.768.384l1.152 1.584Zm10.95 3.792c-1.856 0-3.328-.544-4.416-1.632-1.024-1.024-1.536-2.56-1.536-4.608v-14.88h-2.928c-.288 0-.512-.064-.672-.192-.16-.128-.24-.368-.24-.72v-1.68l3.984-.528.96-7.536c0-.256.096-.448.288-.576.16-.128.384-.192.672-.192h2.16v8.352h6.96v3.12h-6.96v14.592c0 1.056.24 1.824.72 2.304.48.48 1.136.72 1.968.72.352 0 .752-.064 1.2-.192.288-.096.576-.224.864-.384l.288-.192.288-.192c.256-.128.416-.192.48-.192.224 0 .416.128.576.384l1.248 2.016c-.864.736-1.76 1.28-2.688 1.632a9.346 9.346 0 0 1-3.216.576Zm11.534-30.192a3.654 3.654 0 0 1-.672-.96c-.16-.32-.24-.704-.24-1.152 0-.48.08-.88.24-1.2.224-.448.448-.784.672-1.008.256-.256.576-.48.96-.672.32-.16.704-.24 1.152-.24.448 0 .832.08 1.152.24.384.192.704.416.96.672.224.224.448.56.672 1.008.192.384.288.784.288 1.2 0 .384-.096.768-.288 1.152a3.654 3.654 0 0 1-.672.96c-.256.256-.576.48-.96.672-.32.16-.704.24-1.152.24-.448 0-.832-.08-1.152-.24a3.654 3.654 0 0 1-.96-.672Zm6.96 26.832c.224.032.4.144.528.336.128.16.192.352.192.576V44h-11.184v-2.064c0-.224.064-.416.192-.576a.735.735 0 0 1 .528-.336l2.784-.528V23.168l-2.784-.528a.79.79 0 0 1-.528-.288 1.103 1.103 0 0 1-.192-.624v-2.016h7.728v20.784l2.736.528Zm29.187-19.2c0 .48-.24.768-.72.864-.096 0-.24.032-.432.096-.16.032-.368.064-.624.096l-1.296.288-8.496 20.88h-3.888l-8.496-20.88c-.32-.096-.752-.192-1.296-.288l-1.056-.192c-.48-.096-.72-.4-.72-.912v-2.064h10.896v2.064c0 .512-.24.816-.72.912-.224.064-.56.128-1.008.192-.448.064-.992.16-1.632.288l5.136 13.056c.256.672.544 1.824.864 3.456.448-1.792.768-2.944.96-3.456l5.184-13.056-2.736-.528c-.48-.096-.72-.4-.72-.912v-2.016h10.8v2.112Zm11.44-2.496c1.408 0 2.736.24 3.984.72 1.28.48 2.336 1.168 3.168 2.064.96 1.024 1.664 2.16 2.112 3.408.512 1.44.768 2.976.768 4.608 0 .736-.064 1.184-.192 1.344-.16.224-.448.336-.864.336h-16.128c0 1.536.192 2.88.576 4.032.32.992.864 1.92 1.632 2.784.704.8 1.504 1.376 2.4 1.728.96.384 1.984.576 3.072.576 1.152 0 2.08-.112 2.784-.336a17.732 17.732 0 0 0 2.016-.816c.704-.352 1.184-.608 1.44-.768.416-.256.736-.384.96-.384.352 0 .624.144.816.432l1.2 1.584c-.448.576-1.088 1.12-1.92 1.632-.96.608-1.744 1.008-2.352 1.2-.96.32-1.824.544-2.592.672-.96.16-1.84.24-2.64.24-1.664 0-3.216-.288-4.656-.864-1.376-.544-2.608-1.392-3.696-2.544-1.024-1.056-1.824-2.416-2.4-4.08-.576-1.632-.864-3.488-.864-5.568 0-1.664.272-3.232.816-4.704.544-1.504 1.296-2.784 2.256-3.84a10.365 10.365 0 0 1 3.6-2.544c1.408-.608 2.976-.912 4.704-.912Zm.096 3.12c-2.08 0-3.696.592-4.848 1.776-1.184 1.248-1.92 2.912-2.208 4.992h13.2c0-.992-.144-1.888-.432-2.688-.352-.992-.736-1.712-1.152-2.16a6.26 6.26 0 0 0-1.968-1.392c-.736-.32-1.616-.48-2.64-.48l.048-.048Z"/><g clip-path="url(#clip0_79_36)"><path fill="#717485" d="M12.813 47.077a8.317 8.317 0 0 1-5.654-2.105 4.25 4.25 0 0 0-3.262-1.109 4.27 4.27 0 0 0 .372 8.502 4.257 4.257 0 0 0 2.926-1.11 8.28 8.28 0 0 1 5.648-2.098 8.33 8.33 0 0 1 5.655 2.099 4.257 4.257 0 0 0 3.237 1.109 4.311 4.311 0 0 0 3.892-4.131 4.262 4.262 0 0 0-7.16-3.256 8.299 8.299 0 0 1-5.654 2.099ZM46.523 40.536a8.273 8.273 0 0 1-.881-5.996 4.265 4.265 0 0 0-.6-3.4 4.27 4.27 0 0 0-7.267 4.467 4.24 4.24 0 0 0 2.398 1.99 8.268 8.268 0 0 1 4.557 3.94 8.303 8.303 0 0 1 .888 5.995 4.195 4.195 0 0 0 .6 3.394 4.27 4.27 0 0 0 7.29-4.437 4.251 4.251 0 0 0-2.398-1.984 8.322 8.322 0 0 1-4.587-3.97ZM24.5 17.225a8.334 8.334 0 0 1 4.599-3.897 4.263 4.263 0 0 0 2.572-2.296A4.316 4.316 0 0 0 29.98 5.6a4.27 4.27 0 0 0-6.356 4.652 8.31 8.31 0 0 1-.941 5.954 8.292 8.292 0 0 1-4.6 3.897 4.241 4.241 0 0 0-2.571 2.284 4.269 4.269 0 0 0 7.614 3.85 4.25 4.25 0 0 0 .432-3.077 8.29 8.29 0 0 1 .942-5.935Z"/><path fill="#666" fill-opacity=".6" d="M34.777 43.233a4.886 4.886 0 1 0 0 9.767c.352-.001.704-.04 1.05-.114a4.886 4.886 0 0 0-1.05-9.653Z"/><path stroke="#666" stroke-miterlimit="10" stroke-opacity=".6" d="M30.046 29.863a6.027 6.027 0 0 0-8.427 6.822 6.025 6.025 0 0 0 5.873 4.66c.676 0 1.347-.115 1.984-.342a5.996 5.996 0 0 0 .6-11.14h-.03Z"/><path fill="#666" fill-opacity=".6" d="M13.94 30.877a4.955 4.955 0 0 0-1.127-.138 4.887 4.887 0 0 0 0 9.772c.174.01.348.01.522 0a4.88 4.88 0 0 0 .6-9.592l.006-.042ZM37.397 19.036a4.881 4.881 0 1 0-5.3 8.197 4.881 4.881 0 0 0 5.3-8.197Z"/></g><defs><clipPath id="clip0_79_36"><path fill="#fff" d="M0 5h54v48H0z"/></clipPath></defs></svg>