<svg width="250" height="250" viewBox="0 0 250 250" fill="none" xmlns="http://www.w3.org/2000/svg">
<path d="M13.7212 156.738L40.8257 188.36C40.8604 188.401 40.898 188.437 40.9331 188.477H54.8989L72.6924 182.545L76.6465 188.477L134.277 191.406L228.618 188.477L232.77 183.287C235.102 180.373 234.869 176.171 232.23 173.532L221.082 162.384C219.578 160.88 218.827 158.842 218.963 156.738L213.867 146.484L234.375 125V107.612L243.559 93.2617L241.211 78.3662L250 61.5234V41.9922C250 37.9473 246.721 34.668 242.676 34.668H222.168C220.877 34.6679 219.609 35.0092 218.492 35.6573C217.375 36.3054 216.45 37.2373 215.809 38.3584L202.572 61.5234L204.102 76.1719H178.711L185.135 61.5234L180.141 49.0376C179.474 47.372 178.22 46.0088 176.616 45.2065L147.319 30.5581C146.302 30.0498 145.18 29.7852 144.043 29.7852H125L93.1201 61.5234L49.5215 93.2617L5.92285 125L20.0195 140.638L13.7212 156.738Z" fill="#F0FAFF"/>
<path d="M242.676 34.668H222.168C220.877 34.6679 219.609 35.0092 218.492 35.6573C217.375 36.3054 216.45 37.2373 215.809 38.3584L202.572 61.5234L204.102 76.1719H178.711L185.135 61.5234L180.141 49.0376C179.474 47.372 178.22 46.0088 176.616 45.2065L147.319 30.5581C146.302 30.0498 145.18 29.7852 144.043 29.7852H125V190.935L134.277 191.406L228.618 188.477L232.77 183.287C235.102 180.373 234.869 176.171 232.23 173.532L221.082 162.384C219.578 160.88 218.827 158.842 218.963 156.738L213.867 146.484L234.375 125V107.612L243.559 93.2617L241.211 78.3662L250 61.5234V41.9922C250 37.9473 246.721 34.668 242.676 34.668Z" fill="#DCF0FF"/>
<path d="M218.992 156.311C219.124 155.205 219.509 154.144 220.116 153.211C220.723 152.277 221.536 151.495 222.493 150.925L230.819 145.929C231.903 145.278 232.801 144.358 233.424 143.257C234.047 142.157 234.375 140.913 234.375 139.648V125H5.92334L7.05029 132.324L9.85059 150.528C10.0584 151.878 10.6397 153.143 11.5288 154.181L13.7212 156.738H218.963C218.973 156.596 218.974 156.454 218.992 156.311ZM79.355 192.539C80.1929 193.796 81.399 194.763 82.808 195.308C84.217 195.853 85.76 195.948 87.2256 195.582L100.177 192.344L107.798 215.207C108.284 216.665 109.216 217.934 110.463 218.832C111.711 219.731 113.209 220.215 114.746 220.215H134.277C136.22 220.215 138.083 219.443 139.456 218.069L166.608 190.918H184.954L202.34 208.304C203.069 209.032 203.942 209.599 204.905 209.966C205.867 210.334 206.896 210.495 207.924 210.438C208.953 210.381 209.957 210.108 210.873 209.636C211.789 209.164 212.595 208.505 213.238 207.701L228.618 188.477H76.6465L79.355 192.539ZM248.845 85.0029C249.599 83.8242 250 82.4541 250 81.0547V61.5234H202.572L198.387 68.8477H188.064L185.135 61.5234H93.1201L49.5215 93.2617H243.559L248.845 85.0029Z" fill="#FF785A"/>
<path d="M198.386 68.8477H188.064L185.134 61.5234H125V93.2617H243.559L248.845 85.0029C249.599 83.8242 250 82.4541 250 81.0547V61.5234H202.572L198.386 68.8477ZM125 156.738H218.963C218.973 156.596 218.974 156.454 218.992 156.311C219.124 155.205 219.509 154.144 220.116 153.211C220.723 152.277 221.536 151.495 222.493 150.925L230.819 145.929C231.903 145.278 232.801 144.358 233.424 143.257C234.047 142.157 234.375 140.913 234.375 139.648V125H125V156.738ZM125 220.215H134.277C136.22 220.215 138.083 219.443 139.456 218.069L166.608 190.918H184.954L202.34 208.304C203.069 209.032 203.942 209.599 204.905 209.966C205.867 210.334 206.896 210.495 207.924 210.438C208.953 210.381 209.957 210.108 210.873 209.636C211.789 209.164 212.595 208.505 213.238 207.701L228.618 188.477H125V220.215Z" fill="#F0321E"/>
<path d="M125 29.7852H17.0898C15.3967 29.7851 13.7559 30.3718 12.4465 31.4452C11.1372 32.5186 10.2402 34.0126 9.9082 35.6729L0.142575 84.501C-0.0254997 85.3412 -0.0448359 86.2044 0.0854466 87.0513L5.92334 125H125V29.7852Z" fill="#6EA0FF"/>
<path d="M36.6211 70.0684C40.6661 70.0684 43.9453 66.7892 43.9453 62.7441C43.9453 58.6991 40.6661 55.4199 36.6211 55.4199C32.576 55.4199 29.2969 58.6991 29.2969 62.7441C29.2969 66.7892 32.576 70.0684 36.6211 70.0684Z" fill="#F0FAFF"/>
<path d="M65.918 70.0684C69.963 70.0684 73.2422 66.7892 73.2422 62.7441C73.2422 58.6991 69.963 55.4199 65.918 55.4199C61.8729 55.4199 58.5938 58.6991 58.5938 62.7441C58.5938 66.7892 61.8729 70.0684 65.918 70.0684Z" fill="#F0FAFF"/>
<path d="M36.6211 99.3652C40.6661 99.3652 43.9453 96.0861 43.9453 92.041C43.9453 87.996 40.6661 84.7168 36.6211 84.7168C32.576 84.7168 29.2969 87.996 29.2969 92.041C29.2969 96.0861 32.576 99.3652 36.6211 99.3652Z" fill="#F0FAFF"/>
<path d="M65.918 99.3652C69.963 99.3652 73.2422 96.0861 73.2422 92.041C73.2422 87.996 69.963 84.7168 65.918 84.7168C61.8729 84.7168 58.5938 87.996 58.5938 92.041C58.5938 96.0861 61.8729 99.3652 65.918 99.3652Z" fill="#F0FAFF"/>
<path d="M95.2148 70.0684C99.2599 70.0684 102.539 66.7892 102.539 62.7441C102.539 58.6991 99.2599 55.4199 95.2148 55.4199C91.1698 55.4199 87.8906 58.6991 87.8906 62.7441C87.8906 66.7892 91.1698 70.0684 95.2148 70.0684Z" fill="#F0FAFF"/>
<path d="M95.2148 99.3652C99.2599 99.3652 102.539 96.0861 102.539 92.041C102.539 87.996 99.2599 84.7168 95.2148 84.7168C91.1698 84.7168 87.8906 87.996 87.8906 92.041C87.8906 96.0861 91.1698 99.3652 95.2148 99.3652Z" fill="#F0FAFF"/>
</svg>
